<?xml version="1.0" encoding="UTF-8" standalone="no"?>
<!-- Created with Inkscape (http://www.inkscape.org/) -->

<svg
   xmlns:dc="http://purl.org/dc/elements/1.1/"
   xmlns:cc="http://creativecommons.org/ns#"
   xmlns:rdf="http://www.w3.org/1999/02/22-rdf-syntax-ns#"
   xmlns:svg="http://www.w3.org/2000/svg"
   xmlns="http://www.w3.org/2000/svg"
   xmlns:sodipodi="http://sodipodi.sourceforge.net/DTD/sodipodi-0.dtd"
   xmlns:inkscape="http://www.inkscape.org/namespaces/inkscape"
   width="297mm"
   height="210mm"
   viewBox="0 0 297 210"
   id="svg4152"
   version="1.1"
   inkscape:version="0.91 r13725"
   sodipodi:docname="about.svg">
  <defs
     id="defs4154">
    <filter
       height="1.4011922"
       y="-0.2005961"
       width="1.2266996"
       x="-0.11334982"
       id="filter5196"
       style="color-interpolation-filters:sRGB"
       inkscape:collect="always">
      <feGaussianBlur
         id="feGaussianBlur5198"
         stdDeviation="2.0895502"
         inkscape:collect="always" />
    </filter>
    <filter
       height="3.3410032"
       y="-1.1705016"
       width="2.7362218"
       x="-0.86811091"
       id="filter5200"
       style="color-interpolation-filters:sRGB"
       inkscape:collect="always">
      <feGaussianBlur
         id="feGaussianBlur5202"
         stdDeviation="2.0895502"
         inkscape:collect="always" />
    </filter>
    <filter
       height="15.430595"
       y="-7.2152977"
       width="11.566069"
       x="-5.2830345"
       id="filter5204"
       style="color-interpolation-filters:sRGB"
       inkscape:collect="always">
      <feGaussianBlur
         id="feGaussianBlur5206"
         stdDeviation="2.0895502"
         inkscape:collect="always" />
    </filter>
    <filter
       height="1.1133538"
       y="-0.056676892"
       width="1.0667219"
       x="-0.033360942"
       id="filter5216"
       style="color-interpolation-filters:sRGB"
       inkscape:collect="always">
      <feGaussianBlur
         id="feGaussianBlur5218"
         stdDeviation="0.62638142"
         inkscape:collect="always" />
    </filter>
  </defs>
  <sodipodi:namedview
     inkscape:document-units="mm"
     pagecolor="#ffffff"
     bordercolor="#666666"
     borderopacity="1.0"
     inkscape:pageopacity="0.0"
     inkscape:pageshadow="2"
     inkscape:zoom="0.43415836"
     inkscape:cx="649.10606"
     inkscape:cy="416.5811"
     inkscape:current-layer="layer1"
     id="namedview4156"
     showgrid="false"
     inkscape:window-width="1331"
     inkscape:window-height="744"
     inkscape:window-x="35"
     inkscape:window-y="24"
     inkscape:window-maximized="1" />
  <metadata
     id="metadata4158">
    <rdf:RDF>
      <cc:Work
         rdf:about="">
        <dc:format>image/svg+xml</dc:format>
        <dc:type
           rdf:resource="http://purl.org/dc/dcmitype/StillImage" />
        <dc:title></dc:title>
      </cc:Work>
    </rdf:RDF>
  </metadata>
  <g
     inkscape:label="Layer 1"
     inkscape:groupmode="layer"
     id="layer1">
    <g
       id="g5047"
       transform="matrix(0.94015611,0,0,0.86727462,13.770843,16.442899)">
      <rect
         rx="12.513262"
         ry="17.392626"
         y="128.15234"
         x="256.49368"
         height="62.241714"
         width="31.526968"
         id="rect4818"
         style="opacity:1;fill:#999999;fill-opacity:1;stroke:none;stroke-width:2;stroke-miterlimit:4;stroke-dasharray:none;stroke-opacity:1" />
      <path
         sodipodi:nodetypes="ccccc"
         inkscape:connector-curvature="0"
         id="rect4820"
         d="m 256.54697,143.05369 c 1.15369,-7.67682 5.03793,-16.00804 16.10972,-14.88641 l -0.16722,62.19106 c -13.11704,1.68615 -15.73779,-11.85336 -15.82308,-15.4578 z"
         style="opacity:0.22600002;fill:#1a1a1a;fill-opacity:1;stroke:none;stroke-width:2;stroke-miterlimit:4;stroke-dasharray:none;stroke-opacity:1" />
      <rect
         rx="1.4196875"
         ry="2.2725289"
         y="140.83945"
         x="270.6879"
         height="4.5450578"
         width="3.4894195"
         id="rect4823"
         style="opacity:1;fill:#333333;fill-opacity:1;stroke:none;stroke-width:2;stroke-miterlimit:4;stroke-dasharray:none;stroke-opacity:1" />
    </g>
    <rect
       style="opacity:1;fill:#c4d0cd;fill-opacity:1;stroke:none;stroke-width:0.4617776;stroke-miterlimit:4;stroke-dasharray:none;stroke-opacity:1"
       id="rect4718"
       width="215.76375"
       height="131.80565"
       x="29.854658"
       y="33.266342"
       ry="10.629491" />
    <rect
       ry="10.629491"
       y="33.266342"
       x="29.854658"
       height="131.80565"
       width="215.76375"
       id="rect4720"
       style="opacity:1;fill:#999999;fill-opacity:1;stroke:none;stroke-width:0.4617776;stroke-miterlimit:4;stroke-dasharray:none;stroke-opacity:1" />
    <rect
       style="opacity:1;fill:#ffffff;fill-opacity:1;stroke:none;stroke-width:2;stroke-miterlimit:4;stroke-dasharray:none;stroke-opacity:1"
       id="rect4725"
       width="12.978656"
       height="7.1692681"
       x="59.124901"
       y="53.881119"
       ry="0" />
    <rect
       ry="0"
       y="53.881119"
       x="78.192383"
       height="7.1692681"
       width="12.978656"
       id="rect4727"
       style="opacity:1;fill:#ffffff;fill-opacity:1;stroke:none;stroke-width:2;stroke-miterlimit:4;stroke-dasharray:none;stroke-opacity:1" />
    <rect
       style="opacity:1;fill:#ffffff;fill-opacity:1;stroke:none;stroke-width:2;stroke-miterlimit:4;stroke-dasharray:none;stroke-opacity:1"
       id="rect4729"
       width="12.978656"
       height="7.1692681"
       x="96.715088"
       y="53.881119"
       ry="0" />
    <rect
       ry="0"
       y="53.881119"
       x="113.60349"
       height="7.1692681"
       width="12.978656"
       id="rect4731"
       style="opacity:1;fill:#ffffff;fill-opacity:1;stroke:none;stroke-width:2;stroke-miterlimit:4;stroke-dasharray:none;stroke-opacity:1" />
    <rect
       style="opacity:1;fill:#ffffff;fill-opacity:1;stroke:none;stroke-width:2;stroke-miterlimit:4;stroke-dasharray:none;stroke-opacity:1"
       id="rect4733"
       width="12.978656"
       height="7.1692681"
       x="130.4919"
       y="53.881119"
       ry="0" />
    <rect
       ry="0"
       y="53.881119"
       x="148.4698"
       height="7.1692681"
       width="12.978656"
       id="rect4735"
       style="opacity:1;fill:#ffffff;fill-opacity:1;stroke:none;stroke-width:2;stroke-miterlimit:4;stroke-dasharray:none;stroke-opacity:1" />
    <rect
       style="opacity:1;fill:#ffffff;fill-opacity:1;stroke:none;stroke-width:2;stroke-miterlimit:4;stroke-dasharray:none;stroke-opacity:1"
       id="rect4737"
       width="12.978656"
       height="7.1692681"
       x="165.35802"
       y="53.881119"
       ry="0" />
    <rect
       ry="0"
       y="53.881119"
       x="183.88052"
       height="7.1692681"
       width="12.978656"
       id="rect4739"
       style="opacity:1;fill:#ffffff;fill-opacity:1;stroke:none;stroke-width:2;stroke-miterlimit:4;stroke-dasharray:none;stroke-opacity:1" />
    <rect
       style="opacity:1;fill:#ffffff;fill-opacity:1;stroke:none;stroke-width:2;stroke-miterlimit:4;stroke-dasharray:none;stroke-opacity:1"
       id="rect4741"
       width="12.978656"
       height="7.1692681"
       x="200.76871"
       y="53.881119"
       ry="0" />
    <rect
       ry="0"
       y="67.49128"
       x="59.124901"
       height="7.4305048"
       width="12.978656"
       id="rect4743"
       style="opacity:1;fill:#ffffff;fill-opacity:1;stroke:none;stroke-width:2;stroke-miterlimit:4;stroke-dasharray:none;stroke-opacity:1" />
    <rect
       style="opacity:1;fill:#ffffff;fill-opacity:1;stroke:none;stroke-width:2;stroke-miterlimit:4;stroke-dasharray:none;stroke-opacity:1"
       id="rect4745"
       width="12.978656"
       height="7.4305048"
       x="78.192383"
       y="67.49128"
       ry="0" />
    <rect
       ry="0"
       y="67.49128"
       x="96.170334"
       height="7.4305048"
       width="12.978656"
       id="rect4747"
       style="opacity:1;fill:#ffffff;fill-opacity:1;stroke:none;stroke-width:2;stroke-miterlimit:4;stroke-dasharray:none;stroke-opacity:1" />
    <rect
       style="opacity:1;fill:#ffffff;fill-opacity:1;stroke:none;stroke-width:2;stroke-miterlimit:4;stroke-dasharray:none;stroke-opacity:1"
       id="rect4749"
       width="12.978656"
       height="7.4305048"
       x="113.0587"
       y="67.49128"
       ry="0" />
    <rect
       ry="0"
       y="67.49128"
       x="129.9471"
       height="7.4305048"
       width="12.978656"
       id="rect4751"
       style="opacity:1;fill:#ffffff;fill-opacity:1;stroke:none;stroke-width:2;stroke-miterlimit:4;stroke-dasharray:none;stroke-opacity:1" />
    <rect
       style="opacity:1;fill:#ffffff;fill-opacity:1;stroke:none;stroke-width:2;stroke-miterlimit:4;stroke-dasharray:none;stroke-opacity:1"
       id="rect4753"
       width="12.978656"
       height="7.4305048"
       x="147.92506"
       y="67.49128"
       ry="0" />
    <rect
       ry="0"
       y="67.49128"
       x="165.358"
       height="7.4305048"
       width="12.978656"
       id="rect4755"
       style="opacity:1;fill:#ffffff;fill-opacity:1;stroke:none;stroke-width:2;stroke-miterlimit:4;stroke-dasharray:none;stroke-opacity:1" />
    <rect
       style="opacity:1;fill:#ffffff;fill-opacity:1;stroke:none;stroke-width:2;stroke-miterlimit:4;stroke-dasharray:none;stroke-opacity:1"
       id="rect4757"
       width="29.604851"
       height="7.4305048"
       x="184.42528"
       y="67.49128"
       ry="0" />
    <rect
       style="opacity:1;fill:#ffffff;fill-opacity:1;stroke:none;stroke-width:2;stroke-miterlimit:4;stroke-dasharray:none;stroke-opacity:1"
       id="rect4759"
       width="17.37048"
       height="7.4305048"
       x="59.124901"
       y="80.194099"
       ry="0" />
    <rect
       ry="0"
       y="80.194099"
       x="102.70774"
       height="7.4305048"
       width="12.978656"
       id="rect4761"
       style="opacity:1;fill:#ffffff;fill-opacity:1;stroke:none;stroke-width:2;stroke-miterlimit:4;stroke-dasharray:none;stroke-opacity:1" />
    <rect
       style="opacity:1;fill:#ffffff;fill-opacity:1;stroke:none;stroke-width:2;stroke-miterlimit:4;stroke-dasharray:none;stroke-opacity:1"
       id="rect4763"
       width="12.978656"
       height="7.4305048"
       x="84.72979"
       y="80.194099"
       ry="0" />
    <rect
       style="opacity:1;fill:#ffffff;fill-opacity:1;stroke:none;stroke-width:2;stroke-miterlimit:4;stroke-dasharray:none;stroke-opacity:1"
       id="rect4765"
       width="12.978656"
       height="7.4305048"
       x="119.59615"
       y="80.194099"
       ry="0" />
    <rect
       ry="0"
       y="80.194099"
       x="136.48448"
       height="7.4305048"
       width="12.978656"
       id="rect4767"
       style="opacity:1;fill:#ffffff;fill-opacity:1;stroke:none;stroke-width:2;stroke-miterlimit:4;stroke-dasharray:none;stroke-opacity:1" />
    <rect
       style="opacity:1;fill:#ffffff;fill-opacity:1;stroke:none;stroke-width:2;stroke-miterlimit:4;stroke-dasharray:none;stroke-opacity:1"
       id="rect4769"
       width="12.978656"
       height="7.4305048"
       x="154.46245"
       y="80.194099"
       ry="0" />
    <rect
       ry="0"
       y="80.194099"
       x="171.89537"
       height="7.4305048"
       width="12.978656"
       id="rect4771"
       style="opacity:1;fill:#ffffff;fill-opacity:1;stroke:none;stroke-width:2;stroke-miterlimit:4;stroke-dasharray:none;stroke-opacity:1" />
    <rect
       style="opacity:1;fill:#ffffff;fill-opacity:1;stroke:none;stroke-width:2;stroke-miterlimit:4;stroke-dasharray:none;stroke-opacity:1"
       id="rect4773"
       width="24.291508"
       height="7.4305048"
       x="189.59265"
       y="80.194099"
       ry="0" />
    <rect
       style="opacity:1;fill:#ffffff;fill-opacity:1;stroke:none;stroke-width:2;stroke-miterlimit:4;stroke-dasharray:none;stroke-opacity:1"
       id="rect4777"
       width="12.978656"
       height="7.4305048"
       x="102.70774"
       y="93.350533"
       ry="0" />
    <rect
       ry="0"
       y="93.350533"
       x="84.72979"
       height="7.4305048"
       width="12.978656"
       id="rect4779"
       style="opacity:1;fill:#ffffff;fill-opacity:1;stroke:none;stroke-width:2;stroke-miterlimit:4;stroke-dasharray:none;stroke-opacity:1" />
    <rect
       ry="0"
       y="93.350533"
       x="119.59615"
       height="7.4305048"
       width="12.978656"
       id="rect4781"
       style="opacity:1;fill:#ffffff;fill-opacity:1;stroke:none;stroke-width:2;stroke-miterlimit:4;stroke-dasharray:none;stroke-opacity:1" />
    <rect
       style="opacity:1;fill:#ffffff;fill-opacity:1;stroke:none;stroke-width:2;stroke-miterlimit:4;stroke-dasharray:none;stroke-opacity:1"
       id="rect4783"
       width="12.978656"
       height="7.4305048"
       x="136.48448"
       y="93.350533"
       ry="0" />
    <rect
       ry="0"
       y="93.350533"
       x="154.46245"
       height="7.4305048"
       width="12.978656"
       id="rect4785"
       style="opacity:1;fill:#ffffff;fill-opacity:1;stroke:none;stroke-width:2;stroke-miterlimit:4;stroke-dasharray:none;stroke-opacity:1" />
    <rect
       style="opacity:1;fill:#ffffff;fill-opacity:1;stroke:none;stroke-width:2;stroke-miterlimit:4;stroke-dasharray:none;stroke-opacity:1"
       id="rect4787"
       width="12.978656"
       height="7.4305048"
       x="171.89537"
       y="93.350533"
       ry="0" />
    <rect
       ry="0"
       y="93.350533"
       x="193.14177"
       height="7.4305048"
       width="20.742378"
       id="rect4789"
       style="opacity:1;fill:#ffffff;fill-opacity:1;stroke:none;stroke-width:2;stroke-miterlimit:4;stroke-dasharray:none;stroke-opacity:1" />
    <rect
       style="opacity:1;fill:#ffffff;fill-opacity:1;stroke:none;stroke-width:2;stroke-miterlimit:4;stroke-dasharray:none;stroke-opacity:1"
       id="rect4791"
       width="13.82135"
       height="7.4305048"
       x="59.124901"
       y="106.50693"
       ry="0" />
    <rect
       ry="0"
       y="106.50693"
       x="93.752144"
       height="7.4305048"
       width="9.8419571"
       id="rect4793"
       style="opacity:1;fill:#ffffff;fill-opacity:1;stroke:none;stroke-width:2;stroke-miterlimit:4;stroke-dasharray:none;stroke-opacity:1" />
    <rect
       style="opacity:1;fill:#ffffff;fill-opacity:1;stroke:none;stroke-width:2;stroke-miterlimit:4;stroke-dasharray:none;stroke-opacity:1"
       id="rect4795"
       width="9.3593864"
       height="7.4305048"
       x="78.192368"
       y="106.50693"
       ry="0" />
    <rect
       style="opacity:1;fill:#ffffff;fill-opacity:1;stroke:none;stroke-width:2;stroke-miterlimit:4;stroke-dasharray:none;stroke-opacity:1"
       id="rect4797"
       width="56.968372"
       height="7.4305048"
       x="110.17844"
       y="106.50693"
       ry="0" />
    <rect
       ry="0"
       y="106.50693"
       x="171.89537"
       height="7.4305048"
       width="10.982268"
       id="rect4803"
       style="opacity:1;fill:#ffffff;fill-opacity:1;stroke:none;stroke-width:2;stroke-miterlimit:4;stroke-dasharray:none;stroke-opacity:1" />
    <rect
       style="opacity:1;fill:#ffffff;fill-opacity:1;stroke:none;stroke-width:2;stroke-miterlimit:4;stroke-dasharray:none;stroke-opacity:1"
       id="rect4805"
       width="10.760447"
       height="7.4305048"
       x="187.1492"
       y="106.50693"
       ry="0" />
    <rect
       ry="0"
       y="106.50693"
       x="203.51212"
       height="7.4305048"
       width="10.094986"
       id="rect4807"
       style="opacity:1;fill:#ffffff;fill-opacity:1;stroke:none;stroke-width:2;stroke-miterlimit:4;stroke-dasharray:none;stroke-opacity:1" />
    <rect
       style="opacity:1;fill:#ffffff;fill-opacity:1;stroke:none;stroke-width:2;stroke-miterlimit:4;stroke-dasharray:none;stroke-opacity:1"
       id="rect4809"
       width="20.742378"
       height="7.4305048"
       x="58.477024"
       y="93.013649"
       ry="0" />
    <rect
       style="opacity:1;fill:#ffffff;fill-opacity:1;stroke:none;stroke-width:2;stroke-miterlimit:4;stroke-dasharray:none;stroke-opacity:1"
       id="rect4811"
       width="70.064629"
       height="37.429413"
       x="102.07839"
       y="118.92574"
       ry="0" />
    <g
       id="g5018"
       transform="matrix(0.87584315,-0.31525627,0.34174886,0.80794724,8.9212381,127.65281)">
      <rect
         inkscape:transform-center-y="-0.19922655"
         inkscape:transform-center-x="-1.3728521"
         transform="matrix(-0.47344641,-0.88082263,0.88082263,-0.4734464,0,0)"
         rx="0"
         ry="0"
         y="184.30925"
         x="-192.6655"
         height="49.182636"
         width="3.6772065"
         id="rect5158"
         style="opacity:1;fill:#808080;fill-opacity:1;stroke:none;stroke-width:2;stroke-miterlimit:4;stroke-dasharray:none;stroke-opacity:1" />
      <rect
         inkscape:transform-center-y="0.56288322"
         inkscape:transform-center-x="-1.7824898"
         transform="matrix(-0.47344641,-0.88082263,0.88082263,-0.4734464,0,0)"
         style="opacity:0.59899998;fill:#000000;fill-opacity:1;stroke:none;stroke-width:2;stroke-miterlimit:4;stroke-dasharray:none;stroke-opacity:1"
         id="rect5160"
         width="1.9467565"
         height="49.182636"
         x="-192.6655"
         y="184.30925"
         ry="0"
         rx="0" />
      <rect
         style="opacity:0.29571982;fill:#4d4d4d;fill-opacity:1;stroke:none;stroke-width:2;stroke-miterlimit:4;stroke-dasharray:none;stroke-opacity:1;filter:url(#filter5216)"
         id="rect5168"
         width="3.6772065"
         height="49.182636"
         x="-205.37015"
         y="151.51079"
         ry="0"
         rx="0"
         transform="matrix(-0.47344641,-0.88082263,0.88082263,-0.4734464,22.310111,-25.025513)"
         inkscape:transform-center-x="-1.3728521"
         inkscape:transform-center-y="-0.19922655" />
      <path
         sodipodi:nodetypes="cccc"
         inkscape:connector-curvature="0"
         id="path5162"
         d="m 251.81534,79.203726 1.74395,3.24094 -5.77682,1.043481 z"
         inkscape:transform-center-y="11.965272"
         inkscape:transform-center-x="22.30681"
         style="opacity:0.59899998;fill:#cccccc;fill-opacity:1;stroke:none;stroke-width:2;stroke-miterlimit:4;stroke-dasharray:none;stroke-opacity:1" />
      <path
         inkscape:transform-center-x="24.729385"
         sodipodi:nodetypes="cccc"
         inkscape:connector-curvature="0"
         id="path5165"
         d="m 247.77368,83.492087 0.94925,-0.1836 -0.27899,-0.51144 z"
         inkscape:transform-center-y="13.763902"
         style="opacity:1;fill:#000000;fill-opacity:1;stroke:none;stroke-width:2;stroke-miterlimit:4;stroke-dasharray:none;stroke-opacity:1" />
      <path
         style="opacity:0.25700001;fill:#cccccc;fill-opacity:1;stroke:none;stroke-width:2;stroke-miterlimit:4;stroke-dasharray:none;stroke-opacity:1;filter:url(#filter5200)"
         inkscape:transform-center-x="22.30681"
         inkscape:transform-center-y="11.965272"
         d="m 251.2509,80.897046 1.74395,3.240941 -5.77682,1.04348 z"
         id="path5172"
         inkscape:connector-curvature="0"
         sodipodi:nodetypes="cccc" />
      <rect
         rx="0"
         ry="0"
         y="151.51079"
         x="-205.37015"
         height="49.182636"
         width="1.9467565"
         id="rect5170"
         style="opacity:0.25700001;fill:#4d4d4d;fill-opacity:1;stroke:none;stroke-width:2;stroke-miterlimit:4;stroke-dasharray:none;stroke-opacity:1;filter:url(#filter5196)"
         transform="matrix(-0.47344641,-0.88082263,0.88082263,-0.4734464,17.23011,-22.203292)"
         inkscape:transform-center-x="-1.7824898"
         inkscape:transform-center-y="0.56288322" />
      <path
         style="opacity:0.25700001;fill:#000000;fill-opacity:1;stroke:none;stroke-width:2;stroke-miterlimit:4;stroke-dasharray:none;stroke-opacity:1;filter:url(#filter5204)"
         inkscape:transform-center-y="13.763902"
         d="m 247.20924,85.185407 0.94925,-0.1836 -0.27899,-0.51144 z"
         id="path5174"
         inkscape:connector-curvature="0"
         sodipodi:nodetypes="cccc"
         inkscape:transform-center-x="24.729385" />
    </g>
    <rect
       style="opacity:1;fill:#333333;fill-opacity:0.37735847;stroke:none;stroke-width:10;stroke-miterlimit:4;stroke-dasharray:none;stroke-opacity:1"
       id="rect5052"
       width="145.45209"
       height="4.5101366"
       x="62.662308"
       y="32.823071"
       ry="2.2550683" />
    <rect
       style="opacity:1;fill:#666666;fill-opacity:1;stroke:none;stroke-width:0.4617776;stroke-miterlimit:4;stroke-dasharray:none;stroke-opacity:1"
       id="rect4723"
       width="249.13739"
       height="10.849454"
       x="16.200655"
       y="22.85219"
       ry="3.4238787" />
    <g
       id="g5289"
       transform="matrix(-0.86384261,0,0,0.83049593,-7.7161688,28.087057)">
      <path
         sodipodi:nodetypes="sssssss"
         inkscape:connector-curvature="0"
         id="path5261"
         d="m -75.804645,94.540104 c -1.17402,-0.25809 -2.63313,0.64969 -2.50841,2.07057 0.86664,9.872916 -1.90917,17.566046 -3.94424,25.702466 -0.34233,1.36868 0.55592,2.74421 1.72994,3.00231 1.17403,0.25809 2.11394,-0.72214 2.50841,-2.07056 2.14923,-7.34676 5.06833,-13.5673 3.94424,-25.702476 -0.13153,-1.41999 -0.55592,-2.74421 -1.72994,-3.00231 z"
         style="opacity:1;fill:#c87137;fill-opacity:1;stroke:none;stroke-width:10;stroke-miterlimit:4;stroke-dasharray:none;stroke-opacity:1" />
      <path
         sodipodi:nodetypes="sssssssss"
         inkscape:connector-curvature="0"
         id="path5263"
         d="m -86.188705,79.225994 0,0 c -1.49796,-0.17102 -3.16862,1.28047 -2.94042,3.22027 1.74123,14.80091 -0.19524,28.001816 -2.74377,40.936456 -0.3745,1.9007 0.9694,3.66669 2.46735,3.83771 l 0,0 c 1.49796,0.17104 2.53483,-1.33049 2.94042,-3.2203 2.81059,-13.09557 4.26182,-26.585406 2.74377,-40.936446 -0.20565,-1.94407 -0.9694,-3.66666 -2.46735,-3.83769 z"
         style="opacity:1;fill:#c87137;fill-opacity:1;stroke:none;stroke-width:10;stroke-miterlimit:4;stroke-dasharray:none;stroke-opacity:1" />
      <path
         sodipodi:nodetypes="sssssssss"
         id="path5265"
         d="m -97.049665,71.342494 -0.38278,0 c -1.59043,0 -2.825975,1.54031 -2.870815,3.45209 -0.3832,16.33565 -0.64414,32.648176 0,48.789376 0.0762,1.91048 1.280385,3.45207 2.870815,3.45207 l 0.38278,0 c 1.59044,0 2.87082,-1.53963 2.87082,-3.45207 l 0,-48.789376 c 0,-1.91246 -1.28038,-3.45209 -2.87082,-3.45209 z"
         style="opacity:1;fill:#c87137;fill-opacity:1;stroke:none;stroke-width:10;stroke-miterlimit:4;stroke-dasharray:none;stroke-opacity:1"
         inkscape:connector-curvature="0" />
      <path
         sodipodi:nodetypes="ccscc"
         inkscape:connector-curvature="0"
         id="path5267"
         d="m -110.4104,74.624124 c -5.57604,-3.08685 -0.29771,33.973026 -1.25855,41.608936 0.0627,1.68475 3.43041,3.29162 5.27472,3.34334 1.84431,0.0517 1.59947,-1.91776 1.65045,-3.60041 -3.38851,-13.16651 -0.9682,-45.445396 -5.66662,-41.351866 z"
         style="opacity:1;fill:#c87137;fill-opacity:1;stroke:none;stroke-width:10;stroke-miterlimit:4;stroke-dasharray:none;stroke-opacity:1" />
      <path
         sodipodi:nodetypes="ccccc"
         inkscape:connector-curvature="0"
         id="path5269"
         d="m -127.56611,105.54958 c -4.13728,3.63403 -1.71012,6.05073 -0.52737,9.0253 10.14013,23.56868 19.91541,30.4997 20.72099,26.37038 2.22545,-1.82547 1.50874,-4.76249 -0.33397,-7.16722 -4.82035,-1.26066 -15.78638,-30.73891 -19.85965,-28.22846 z"
         style="opacity:1;fill:#c87137;fill-opacity:1;stroke:none;stroke-width:10;stroke-miterlimit:4;stroke-dasharray:none;stroke-opacity:1" />
      <path
         sodipodi:nodetypes="cssssssssccsssc"
         inkscape:connector-curvature="0"
         id="path5271"
         d="m -83.372165,178.64284 c -0.14188,-0.52367 -2.0281,-23.2719 -2.12014,-23.78326 -1.58425,-8.80182 3.96555,-15.91642 8.07273,-26.09352 1.63693,-4.0561 4.67696,-33.170826 -2.32858,-18.78213 -1.64053,3.3695 -4.13793,0.36124 -4.35778,-5.92622 -0.27989,-8.004476 -3.71913,-7.473686 -4.09203,-3.51782 -0.50796,5.38854 -5.72086,12.71023 -6.60878,-2.552796 -0.13138,-2.25836 -5.1886,-2.45467 -5.422005,-0.32721 -2.28159,20.796036 -7.31456,8.033486 -7.88952,-0.46453 -0.35521,-5.25002 -2.98712,-7.28901 -3.18973,8.922396 -2.2333,12.36053 2.9111,21.30715 -6.10672,14.19384 -3.11458,-4.27762 -5.50098,-0.58401 -3.77126,5.55668 1.67764,5.95577 7.38954,14.25614 9.76376,17.10944 0.94812,1.13943 1.23894,9.62901 0.66237,12.60742 -0.0918,0.47441 -0.40682,22.78836 -0.54352,22.93115"
         style="opacity:1;fill:#c87137;fill-opacity:1;stroke:none;stroke-width:10;stroke-miterlimit:4;stroke-dasharray:none;stroke-opacity:1" />
      <rect
         ry="1.3219653"
         y="95.072342"
         x="74.78598"
         height="3.8190112"
         width="2.9252002"
         id="rect5273"
         style="opacity:1;fill:#e9c6af;fill-opacity:1;stroke:none;stroke-width:10;stroke-miterlimit:4;stroke-dasharray:none;stroke-opacity:1"
         transform="scale(-1,1)" />
      <rect
         rx="1.124019"
         transform="matrix(-0.91335573,0.40716252,0.32347849,0.94623552,0,0)"
         ry="1.5000488"
         y="37.974819"
         x="107.21517"
         height="4.708271"
         width="3.6561344"
         id="rect5275"
         style="opacity:1;fill:#e9c6af;fill-opacity:1;stroke:none;stroke-width:10;stroke-miterlimit:4;stroke-dasharray:none;stroke-opacity:1" />
      <rect
         ry="1.5997183"
         y="72.23954"
         x="95.085632"
         height="5.6878886"
         width="4.4690552"
         id="rect5277"
         style="opacity:1;fill:#e9c6af;fill-opacity:1;stroke:none;stroke-width:10;stroke-miterlimit:4;stroke-dasharray:none;stroke-opacity:1"
         transform="scale(-1,1)" />
      <rect
         ry="1.4625996"
         y="74.35218"
         x="108.73657"
         height="4.5503111"
         width="3.3314779"
         id="rect5279"
         style="opacity:1;fill:#e9c6af;fill-opacity:1;stroke:none;stroke-width:10;stroke-miterlimit:4;stroke-dasharray:none;stroke-opacity:1"
         transform="scale(-1,1)" />
      <rect
         rx="1.4144832"
         transform="matrix(-0.93430748,0.35646814,0.47594704,0.87947394,0,0)"
         ry="1.4144832"
         y="55.824032"
         x="165.12032"
         height="7.0656195"
         width="2.8289664"
         id="rect5281"
         style="opacity:1;fill:#e9c6af;fill-opacity:1;stroke:none;stroke-width:10;stroke-miterlimit:4;stroke-dasharray:none;stroke-opacity:1" />
      <rect
         ry="0.63248932"
         y="159.99545"
         x="84.365723"
         height="4.0627775"
         width="26.602531"
         id="rect5283"
         style="opacity:1;fill:#0066ff;fill-opacity:1;stroke:none;stroke-width:10;stroke-miterlimit:4;stroke-dasharray:none;stroke-opacity:1"
         transform="scale(-1,1)" />
      <path
         d="m 101.05123,162.32492 a 3.4473813,3.6197503 0 0 1 -3.447303,3.61975 3.4473813,3.6197503 0 0 1 -3.447457,-3.61959 3.4473813,3.6197503 0 0 1 3.447156,-3.61991 3.4473813,3.6197503 0 0 1 3.447604,3.61943"
         sodipodi:open="true"
         sodipodi:end="6.283098"
         sodipodi:start="0"
         sodipodi:ry="3.6197503"
         sodipodi:rx="3.4473813"
         sodipodi:cy="162.32492"
         sodipodi:cx="97.603851"
         sodipodi:type="arc"
         id="path5285"
         style="opacity:1;fill:#d5f6ff;fill-opacity:1;stroke:none;stroke-width:10;stroke-miterlimit:4;stroke-dasharray:none;stroke-opacity:1"
         transform="scale(-1,1)" />
    </g>
    <path
       sodipodi:nodetypes="sssssss"
       inkscape:connector-curvature="0"
       id="path5314"
       d="m 208.3381,111.32157 c -1.10377,-0.22384 -2.47556,0.56346 -2.3583,1.79575 0.81479,8.56255 -1.79492,15.2346 -3.70819,22.29111 -0.32185,1.18702 0.52264,2.37999 1.62641,2.60383 1.10377,0.22384 1.98743,-0.62629 2.3583,-1.79575 2.0206,-6.37165 4.76501,-11.76657 3.70819,-22.29111 -0.12366,-1.23152 -0.52264,-2.37998 -1.62641,-2.60383 z"
       style="opacity:1;fill:#803300;fill-opacity:1;stroke:none;stroke-width:10;stroke-miterlimit:4;stroke-dasharray:none;stroke-opacity:1" />
    <path
       sodipodi:nodetypes="sssssssss"
       inkscape:connector-curvature="0"
       id="path5316"
       d="m 198.57546,98.040042 0,0 c -1.40831,-0.14832 -2.979,1.11053 -2.76445,2.792868 1.63702,12.83644 -0.18355,24.28526 -2.57958,35.50315 -0.35207,1.64842 0.9114,3.18002 2.31971,3.32834 l 0,0 c 1.40831,0.14834 2.38312,-1.1539 2.76444,-2.79289 2.64239,-11.35745 4.00679,-23.05685 2.57958,-35.50313 -0.19334,-1.686038 -0.91139,-3.180008 -2.3197,-3.328338 z"
       style="opacity:1;fill:#803300;fill-opacity:1;stroke:none;stroke-width:10;stroke-miterlimit:4;stroke-dasharray:none;stroke-opacity:1" />
    <path
       sodipodi:nodetypes="sssssssss"
       id="path5318"
       d="m 188.36446,91.202941 -0.35986,0 c -1.49526,0 -2.65686,1.335862 -2.69903,2.993879 -0.36027,14.16745 -0.60558,28.31491 0,42.31376 0.0716,1.65691 1.20377,2.99389 2.69903,2.99389 l 0.35986,0 c 1.49526,0 2.69903,-1.33528 2.69903,-2.99389 l 0,-42.31376 c 0,-1.658608 -1.20377,-2.993879 -2.69903,-2.993879 z"
       style="opacity:1;fill:#803300;fill-opacity:1;stroke:none;stroke-width:10;stroke-miterlimit:4;stroke-dasharray:none;stroke-opacity:1"
       inkscape:connector-curvature="0" />
    <path
       sodipodi:nodetypes="ccscc"
       inkscape:connector-curvature="0"
       id="path5320"
       d="m 175.80328,94.048984 c -5.24235,-2.677121 -0.27988,29.463916 -1.18323,36.086346 0.0589,1.46115 3.22512,2.85474 4.95907,2.8996 1.73393,0.0449 1.50375,-1.66323 1.55167,-3.12254 -3.18572,-11.41898 -0.91026,-39.413588 -5.32751,-35.863406 z"
       style="opacity:1;fill:#803300;fill-opacity:1;stroke:none;stroke-width:10;stroke-miterlimit:4;stroke-dasharray:none;stroke-opacity:1" />
    <path
       sodipodi:nodetypes="ccccc"
       inkscape:connector-curvature="0"
       id="path5322"
       d="m 159.67424,120.86982 c -3.8897,3.1517 -1.60777,5.24765 -0.49581,7.82741 9.5333,20.44052 18.72359,26.45162 19.48096,22.87037 2.09228,-1.58318 1.41846,-4.13039 -0.31398,-6.21595 -4.53187,-1.09334 -14.84166,-26.65908 -18.67117,-24.48183 z"
       style="opacity:1;fill:#803300;fill-opacity:1;stroke:none;stroke-width:10;stroke-miterlimit:4;stroke-dasharray:none;stroke-opacity:1" />
    <path
       sodipodi:nodetypes="cssssssssccsssc"
       inkscape:connector-curvature="0"
       id="path5324"
       d="m 201.22345,184.26175 c -0.13339,-0.45416 -1.90672,-20.18312 -1.99326,-20.62661 -1.48945,-7.6336 3.72823,-13.80391 7.58964,-22.63025 1.53895,-3.51776 4.39705,-28.76823 -2.18924,-16.28927 -1.54235,2.92229 -3.8903,0.3133 -4.097,-5.13966 -0.26314,-6.94209 -3.49656,-6.48175 -3.84715,-3.05092 -0.47755,4.67335 -5.37849,11.02327 -6.21327,-2.21398 -0.12352,-1.95862 -4.8781,-2.12887 -5.09754,-0.28378 -2.14505,18.03588 -6.87683,6.96725 -7.41739,-0.40288 -0.33395,-4.55321 -2.80835,-6.32157 -2.99884,7.73818 -2.09964,10.71998 2.73688,18.47916 -5.74127,12.30996 -2.92818,-3.70988 -5.17178,-0.5065 -3.54557,4.81917 1.57725,5.16529 6.94733,12.36398 9.17946,14.83857 0.89138,0.98821 1.16479,8.35101 0.62273,10.9341 -0.0863,0.41145 -0.38248,19.76377 -0.511,19.88761"
       style="opacity:1;fill:#803300;fill-opacity:1;stroke:none;stroke-width:10;stroke-miterlimit:4;stroke-dasharray:none;stroke-opacity:1" />
    <rect
       transform="matrix(-0.99388658,0.11040595,0.15379971,0.98810204,0,0)"
       ry="0.55040812"
       y="184.38136"
       x="-173.81232"
       height="2.8000026"
       width="26.831764"
       id="rect5326"
       style="opacity:1;fill:#ff6600;fill-opacity:1;stroke:none;stroke-width:10;stroke-miterlimit:4;stroke-dasharray:none;stroke-opacity:1" />
    <rect
       ry="1.146507"
       y="111.78323"
       x="-209.29581"
       height="3.3121316"
       width="2.750145"
       id="rect5328"
       style="opacity:1;fill:#d38d5f;fill-opacity:1;stroke:none;stroke-width:10;stroke-miterlimit:4;stroke-dasharray:none;stroke-opacity:1"
       transform="scale(-1,1)" />
    <rect
       rx="1.0436172"
       transform="matrix(-0.9248522,0.38032671,0.3474925,0.93768276,0,0)"
       ry="1.3128204"
       y="166.78503"
       x="-152.60101"
       height="4.1206088"
       width="3.394609"
       id="rect5330"
       style="opacity:1;fill:#d38d5f;fill-opacity:1;stroke:none;stroke-width:10;stroke-miterlimit:4;stroke-dasharray:none;stroke-opacity:1" />
    <rect
       ry="1.3873951"
       y="91.980957"
       x="-190.21095"
       height="4.9329615"
       width="4.2016096"
       id="rect5332"
       style="opacity:1;fill:#d38d5f;fill-opacity:1;stroke:none;stroke-width:10;stroke-miterlimit:4;stroke-dasharray:none;stroke-opacity:1"
       transform="scale(-1,1)" />
    <rect
       ry="1.2684755"
       y="93.813194"
       x="-177.37697"
       height="3.9463694"
       width="3.1321092"
       id="rect5334"
       style="opacity:1;fill:#d38d5f;fill-opacity:1;stroke:none;stroke-width:10;stroke-miterlimit:4;stroke-dasharray:none;stroke-opacity:1"
       transform="scale(-1,1)" />
    <rect
       rx="1.317183"
       transform="matrix(-0.94328182,0.33199307,0.50600384,0.86253122,0,0)"
       ry="1.2508423"
       y="172.11775"
       x="-76.808945"
       height="6.2482018"
       width="2.634366"
       id="rect5336"
       style="opacity:1;fill:#d38d5f;fill-opacity:1;stroke:none;stroke-width:10;stroke-miterlimit:4;stroke-dasharray:none;stroke-opacity:1" />
    <rect
       ry="0.54854196"
       y="168.08932"
       x="-200.28937"
       height="3.5235438"
       width="27.455105"
       id="rect5338"
       style="opacity:1;fill:#280b0b;fill-opacity:1;stroke:none;stroke-width:10;stroke-miterlimit:4;stroke-dasharray:none;stroke-opacity:1"
       transform="scale(-1,1)" />
    <rect
       ry="0.35235438"
       y="168.16229"
       x="-198.61656"
       height="3.3826022"
       width="0.76392907"
       id="rect5340"
       style="opacity:1;fill:#dd2a00;fill-opacity:1;stroke:none;stroke-width:10;stroke-miterlimit:4;stroke-dasharray:none;stroke-opacity:1"
       transform="scale(-1,1)" />
    <rect
       ry="0.35235438"
       y="168.37372"
       x="-193.38365"
       height="3.1359541"
       width="0.76392907"
       id="rect5342"
       style="opacity:1;fill:#dd2a00;fill-opacity:1;stroke:none;stroke-width:10;stroke-miterlimit:4;stroke-dasharray:none;stroke-opacity:1"
       transform="scale(-1,1)" />
    <rect
       ry="0.33473665"
       y="168.44418"
       x="-187.5396"
       height="2.9597769"
       width="0.72573262"
       id="rect5344"
       style="opacity:1;fill:#dd2a00;fill-opacity:1;stroke:none;stroke-width:10;stroke-miterlimit:4;stroke-dasharray:none;stroke-opacity:1"
       transform="scale(-1,1)" />
    <rect
       ry="0.33473703"
       y="168.30325"
       x="-181.16078"
       height="3.0302479"
       width="0.80212551"
       id="rect5346"
       style="opacity:1;fill:#dd2a00;fill-opacity:1;stroke:none;stroke-width:10;stroke-miterlimit:4;stroke-dasharray:none;stroke-opacity:1"
       transform="scale(-1,1)" />
    <rect
       ry="0.31711897"
       y="168.33847"
       x="-176.23344"
       height="2.9950125"
       width="0.68753618"
       id="rect5348"
       style="opacity:1;fill:#dd2a00;fill-opacity:1;stroke:none;stroke-width:10;stroke-miterlimit:4;stroke-dasharray:none;stroke-opacity:1"
       transform="scale(-1,1)" />
    <rect
       ry="0.28188354"
       y="168.37372"
       x="-197.89085"
       height="2.9245412"
       width="0.61114329"
       id="rect5350"
       style="opacity:1;fill:#ffcc00;fill-opacity:1;stroke:none;stroke-width:10;stroke-miterlimit:4;stroke-dasharray:none;stroke-opacity:1"
       transform="scale(-1,1)" />
    <rect
       ry="0.28188264"
       y="168.72607"
       x="-192.61974"
       height="2.5721872"
       width="0.64933968"
       id="rect5352"
       style="opacity:1;fill:#ffcc00;fill-opacity:1;stroke:none;stroke-width:10;stroke-miterlimit:4;stroke-dasharray:none;stroke-opacity:1"
       transform="scale(-1,1)" />
    <rect
       ry="0.28188264"
       y="168.79654"
       x="-186.81387"
       height="2.4312453"
       width="0.76392907"
       id="rect5354"
       style="opacity:1;fill:#ffcc00;fill-opacity:1;stroke:none;stroke-width:10;stroke-miterlimit:4;stroke-dasharray:none;stroke-opacity:1"
       transform="scale(-1,1)" />
    <rect
       ry="0.28188264"
       y="168.79654"
       x="-180.35867"
       height="2.2903032"
       width="0.64933968"
       id="rect5356"
       style="opacity:1;fill:#ffcc00;fill-opacity:1;stroke:none;stroke-width:10;stroke-miterlimit:4;stroke-dasharray:none;stroke-opacity:1"
       transform="scale(-1,1)" />
    <rect
       ry="0.28188264"
       y="168.58511"
       x="-175.50772"
       height="2.5369518"
       width="0.76392907"
       id="rect5358"
       style="opacity:1;fill:#ffcc00;fill-opacity:1;stroke:none;stroke-width:10;stroke-miterlimit:4;stroke-dasharray:none;stroke-opacity:1"
       transform="scale(-1,1)" />
    <rect
       ry="0.28188264"
       y="168.51465"
       x="-191.9704"
       height="2.7835999"
       width="0.72573262"
       id="rect5360"
       style="opacity:1;fill:#55d400;fill-opacity:1;stroke:none;stroke-width:10;stroke-miterlimit:4;stroke-dasharray:none;stroke-opacity:1"
       transform="scale(-1,1)" />
    <rect
       ry="0.28188264"
       y="168.54988"
       x="-186.04994"
       height="2.5017164"
       width="0.84032202"
       id="rect5362"
       style="opacity:1;fill:#55d400;fill-opacity:1;stroke:none;stroke-width:10;stroke-miterlimit:4;stroke-dasharray:none;stroke-opacity:1"
       transform="scale(-1,1)" />
    <rect
       ry="0.28188264"
       y="168.40894"
       x="-179.90031"
       height="2.642658"
       width="0.68753618"
       id="rect5364"
       style="opacity:1;fill:#55d400;fill-opacity:1;stroke:none;stroke-width:10;stroke-miterlimit:4;stroke-dasharray:none;stroke-opacity:1"
       transform="scale(-1,1)" />
    <rect
       ry="0.28188264"
       y="168.58511"
       x="-174.74379"
       height="2.6778932"
       width="0.80212551"
       id="rect5366"
       style="opacity:1;fill:#55d400;fill-opacity:1;stroke:none;stroke-width:10;stroke-miterlimit:4;stroke-dasharray:none;stroke-opacity:1"
       transform="scale(-1,1)" />
    <rect
       ry="0.28188264"
       y="168.47942"
       x="-197.35609"
       height="2.7835999"
       width="0.72573262"
       id="rect5368"
       style="opacity:1;fill:#55d400;fill-opacity:1;stroke:none;stroke-width:10;stroke-miterlimit:4;stroke-dasharray:none;stroke-opacity:1"
       transform="scale(-1,1)" />
    <rect
       ry="0.44847393"
       y="164.01846"
       x="-199.54872"
       height="0.89694786"
       width="1.026341"
       id="rect5370"
       style="opacity:1;fill:#aa4400;fill-opacity:1;stroke:none;stroke-width:10;stroke-miterlimit:4;stroke-dasharray:none;stroke-opacity:1"
       transform="scale(-1,1)" />
    <rect
       ry="0.34881341"
       y="165.16455"
       x="-195.65942"
       height="0.89694786"
       width="0.81026918"
       id="rect5372"
       style="opacity:1;fill:#aa4400;fill-opacity:1;stroke:none;stroke-width:10;stroke-miterlimit:4;stroke-dasharray:none;stroke-opacity:1"
       transform="scale(-1,1)" />
    <rect
       ry="0.34881341"
       y="164.46692"
       x="-192.20227"
       height="0.84711736"
       width="0.81026918"
       id="rect5374"
       style="opacity:1;fill:#aa4400;fill-opacity:1;stroke:none;stroke-width:10;stroke-miterlimit:4;stroke-dasharray:none;stroke-opacity:1"
       transform="scale(-1,1)" />
    <rect
       ry="0.34881341"
       y="165.81233"
       x="-188.90718"
       height="0.89694786"
       width="0.91830498"
       id="rect5376"
       style="opacity:1;fill:#aa4400;fill-opacity:1;stroke:none;stroke-width:10;stroke-miterlimit:4;stroke-dasharray:none;stroke-opacity:1"
       transform="scale(-1,1)" />
    <rect
       ry="0.34881341"
       y="165.36388"
       x="-185.82816"
       height="0.74745649"
       width="0.91830498"
       id="rect5378"
       style="opacity:1;fill:#aa4400;fill-opacity:1;stroke:none;stroke-width:10;stroke-miterlimit:4;stroke-dasharray:none;stroke-opacity:1"
       transform="scale(-1,1)" />
    <rect
       ry="0.34881341"
       y="166.5598"
       x="-182.15492"
       height="0.84711736"
       width="0.86428714"
       id="rect5380"
       style="opacity:1;fill:#aa4400;fill-opacity:1;stroke:none;stroke-width:10;stroke-miterlimit:4;stroke-dasharray:none;stroke-opacity:1"
       transform="scale(-1,1)" />
    <rect
       ry="0.34881341"
       y="166.50998"
       x="-178.26564"
       height="0.99660879"
       width="0.86428714"
       id="rect5382"
       style="opacity:1;fill:#aa4400;fill-opacity:1;stroke:none;stroke-width:10;stroke-miterlimit:4;stroke-dasharray:none;stroke-opacity:1"
       transform="scale(-1,1)" />
    <path
       style="opacity:0.24500002;fill:#1a1a1a;fill-opacity:1;stroke:none;stroke-width:2;stroke-miterlimit:4;stroke-dasharray:none;stroke-opacity:1"
       inkscape:transform-center-x="-0.14280315"
       inkscape:transform-center-y="18.718627"
       d="m 29.863206,139.63009 0.07195,-96.554664 c 0.03524,-3.766816 3.771475,-9.156082 10.573777,-9.740322 64.616687,-1.172294 102.803467,1.120758 192.796977,0.0651 7.61344,-0.639462 12.61986,5.79218 12.32235,10.771052 z"
       id="path4815"
       inkscape:connector-curvature="0"
       sodipodi:nodetypes="cccccc" />
  </g>
</svg>
