<?xml version="1.0" encoding="UTF-8" standalone="no"?>
<!-- Created with Inkscape (http://www.inkscape.org/) -->

<svg
   xmlns:dc="http://purl.org/dc/elements/1.1/"
   xmlns:cc="http://creativecommons.org/ns#"
   xmlns:rdf="http://www.w3.org/1999/02/22-rdf-syntax-ns#"
   xmlns:svg="http://www.w3.org/2000/svg"
   xmlns="http://www.w3.org/2000/svg"
   xmlns:sodipodi="http://sodipodi.sourceforge.net/DTD/sodipodi-0.dtd"
   xmlns:inkscape="http://www.inkscape.org/namespaces/inkscape"
   width="297mm"
   height="210mm"
   viewBox="0 0 297 210"
   id="svg4152"
   version="1.1"
   inkscape:version="0.91 r13725"
   sodipodi:docname="explore.svg">
  <defs
     id="defs4154" />
  <sodipodi:namedview
     inkscape:document-units="mm"
     pagecolor="#ffffff"
     bordercolor="#666666"
     borderopacity="1.0"
     inkscape:pageopacity="0.0"
     inkscape:pageshadow="2"
     inkscape:zoom="0.86831672"
     inkscape:cx="398.34828"
     inkscape:cy="470.33316"
     inkscape:current-layer="layer1"
     id="namedview4156"
     showgrid="false"
     inkscape:window-width="1331"
     inkscape:window-height="744"
     inkscape:window-x="35"
     inkscape:window-y="24"
     inkscape:window-maximized="1" />
  <metadata
     id="metadata4158">
    <rdf:RDF>
      <cc:Work
         rdf:about="">
        <dc:format>image/svg+xml</dc:format>
        <dc:type
           rdf:resource="http://purl.org/dc/dcmitype/StillImage" />
        <dc:title />
      </cc:Work>
    </rdf:RDF>
  </metadata>
  <g
     inkscape:label="Layer 1"
     inkscape:groupmode="layer"
     id="layer1">
    <rect
       style="opacity:1;fill:#2ca05a;fill-opacity:1;stroke:none;stroke-width:10;stroke-miterlimit:4;stroke-dasharray:none;stroke-opacity:1"
       id="rect4741"
       width="297.59549"
       height="95.260406"
       x="0.21126385"
       y="102.43733"
       transform="matrix(0.9999972,-0.00236607,0.0031888,0.99999492,0,0)" />
    <path
       style="opacity:1;fill:#c83f00;fill-opacity:1;stroke:none;stroke-width:10;stroke-miterlimit:4;stroke-dasharray:none;stroke-opacity:1"
       d="m 45.247882,130.84332 4.341644,0 0.308282,12.27065 4.058401,4.1437 -12.845184,0 4.770313,-3.64039 z"
       id="rect4254"
       inkscape:connector-curvature="0"
       sodipodi:nodetypes="ccccccc" />
    <rect
       style="opacity:1;fill:#80b3ff;fill-opacity:1;stroke:none;stroke-width:10;stroke-miterlimit:4;stroke-dasharray:none;stroke-opacity:1"
       id="rect4701"
       width="298.33777"
       height="91.916641"
       x="0.65004444"
       y="10.195649"
       ry="0" />
    <path
       style="opacity:1;fill:#ffff00;fill-opacity:0.25157231;stroke:none;stroke-width:10;stroke-miterlimit:4;stroke-dasharray:none;stroke-opacity:1"
       id="path4712"
       sodipodi:type="arc"
       sodipodi:cx="141.9756"
       sodipodi:cy="49.388035"
       sodipodi:rx="36.954292"
       sodipodi:ry="31.881271"
       sodipodi:start="0"
       sodipodi:end="6.283098"
       sodipodi:open="true"
       d="m 178.92989,49.388035 a 36.954292,31.881271 0 0 1 -36.95348,31.881271 36.954292,31.881271 0 0 1 -36.9551,-31.879879 36.954292,31.881271 0 0 1 36.95187,-31.882663 36.954292,31.881271 0 0 1 36.95671,31.878487" />
    <path
       d="M 167.93772,50.045284 A 26.429922,23.708824 0 0 1 141.50837,73.754108 26.429922,23.708824 0 0 1 115.07788,50.046319 26.429922,23.708824 0 0 1 141.50607,26.33646 26.429922,23.708824 0 0 1 167.93772,50.043214"
       sodipodi:open="true"
       sodipodi:end="6.283098"
       sodipodi:start="0"
       sodipodi:ry="23.708824"
       sodipodi:rx="26.429922"
       sodipodi:cy="50.045284"
       sodipodi:cx="141.5078"
       sodipodi:type="arc"
       id="path4710"
       style="opacity:1;fill:#ffff00;fill-opacity:0.15723273;stroke:none;stroke-width:10;stroke-miterlimit:4;stroke-dasharray:none;stroke-opacity:1" />
    <path
       style="opacity:1;fill:#ffff00;fill-opacity:1;stroke:none;stroke-width:10;stroke-miterlimit:4;stroke-dasharray:none;stroke-opacity:1"
       id="path4708"
       sodipodi:type="arc"
       sodipodi:cx="142.09604"
       sodipodi:cy="49.533527"
       sodipodi:rx="17.425898"
       sodipodi:ry="15.701443"
       sodipodi:start="0"
       sodipodi:end="6.283098"
       sodipodi:open="true"
       d="M 159.52194,49.533527 A 17.425898,15.701443 0 0 1 142.09642,65.23497 17.425898,15.701443 0 0 1 124.67014,49.534213 17.425898,15.701443 0 0 1 142.0949,33.832085 17.425898,15.701443 0 0 1 159.52194,49.532157" />
    <g
       id="g4720"
       transform="matrix(0.79518286,0,0,-0.72320341,112.30526,95.040765)">
      <path
         d="M 46.884386,17.176479 A 17.466732,7.1245875 0 0 1 29.418035,24.301067 17.466732,7.1245875 0 0 1 11.950922,17.17679 17.466732,7.1245875 0 0 1 29.41651,10.051892 17.466732,7.1245875 0 0 1 46.884386,17.175857"
         sodipodi:open="true"
         sodipodi:end="6.283098"
         sodipodi:start="0"
         sodipodi:ry="7.1245875"
         sodipodi:rx="17.466732"
         sodipodi:cy="17.176479"
         sodipodi:cx="29.417654"
         sodipodi:type="arc"
         id="path4714"
         style="opacity:1;fill:#ffffff;fill-opacity:1;stroke:none;stroke-width:10;stroke-miterlimit:4;stroke-dasharray:none;stroke-opacity:1" />
      <path
         style="opacity:1;fill:#ffffff;fill-opacity:1;stroke:none;stroke-width:10;stroke-miterlimit:4;stroke-dasharray:none;stroke-opacity:1"
         id="path4716"
         sodipodi:type="arc"
         sodipodi:cx="44.12648"
         sodipodi:cy="24.530893"
         sodipodi:rx="17.466732"
         sodipodi:ry="7.1245875"
         sodipodi:start="0"
         sodipodi:end="6.283098"
         sodipodi:open="true"
         d="M 61.593212,24.530893 A 17.466732,7.1245875 0 0 1 44.126861,31.655481 17.466732,7.1245875 0 0 1 26.659748,24.531204 17.466732,7.1245875 0 0 1 44.125336,17.406306 17.466732,7.1245875 0 0 1 61.593212,24.530271" />
      <path
         d="M 78.600292,14.418575 A 17.466732,7.1245875 0 0 1 61.133941,21.543163 17.466732,7.1245875 0 0 1 43.666828,14.418886 17.466732,7.1245875 0 0 1 61.132416,7.2939878 17.466732,7.1245875 0 0 1 78.600292,14.417953"
         sodipodi:open="true"
         sodipodi:end="6.283098"
         sodipodi:start="0"
         sodipodi:ry="7.1245875"
         sodipodi:rx="17.466732"
         sodipodi:cy="14.418575"
         sodipodi:cx="61.13356"
         sodipodi:type="arc"
         id="path4718"
         style="opacity:1;fill:#ffffff;fill-opacity:1;stroke:none;stroke-width:10;stroke-miterlimit:4;stroke-dasharray:none;stroke-opacity:1" />
    </g>
    <g
       id="g4756"
       transform="matrix(1,0,0,0.88931165,-10.112318,23.653448)">
      <path
         transform="scale(-1,-1)"
         d="m -22.241447,-18.730074 a 12.696751,12.065834 0 0 1 -12.696474,12.0658341 12.696751,12.065834 0 0 1 -12.697028,-12.0653071 12.696751,12.065834 0 0 1 12.69592,-12.066361 12.696751,12.065834 0 0 1 12.697582,12.064781"
         sodipodi:open="true"
         sodipodi:end="6.283098"
         sodipodi:start="0"
         sodipodi:ry="12.065834"
         sodipodi:rx="12.696751"
         sodipodi:cy="-18.730074"
         sodipodi:cx="-34.938198"
         sodipodi:type="arc"
         id="path4745"
         style="opacity:1;fill:#ffffff;fill-opacity:1;stroke:none;stroke-width:10;stroke-miterlimit:4;stroke-dasharray:none;stroke-opacity:1" />
      <path
         transform="scale(-1,-1)"
         style="opacity:1;fill:#ffffff;fill-opacity:1;stroke:none;stroke-width:10;stroke-miterlimit:4;stroke-dasharray:none;stroke-opacity:1"
         id="path4747"
         sodipodi:type="arc"
         sodipodi:cx="-49.986645"
         sodipodi:cy="-18.385338"
         sodipodi:rx="9.2493696"
         sodipodi:ry="9.652667"
         sodipodi:start="0"
         sodipodi:end="6.283098"
         sodipodi:open="true"
         d="m -40.737275,-18.385338 a 9.2493696,9.652667 0 0 1 -9.249168,9.6526672 9.2493696,9.652667 0 0 1 -9.249571,-9.6522452 9.2493696,9.652667 0 0 1 9.248764,-9.653089 9.2493696,9.652667 0 0 1 9.249975,9.651824" />
      <path
         transform="scale(-1,-1)"
         d="m -56.183529,-11.260746 a 4.8826866,5.9754605 0 0 1 -4.88258,5.9754605 4.8826866,5.9754605 0 0 1 -4.882793,-5.9751995 4.8826866,5.9754605 0 0 1 4.882367,-5.975722 4.8826866,5.9754605 0 0 1 4.883006,5.974939"
         sodipodi:open="true"
         sodipodi:end="6.283098"
         sodipodi:start="0"
         sodipodi:ry="5.9754605"
         sodipodi:rx="4.8826866"
         sodipodi:cy="-11.260746"
         sodipodi:cx="-61.066216"
         sodipodi:type="arc"
         id="path4749"
         style="opacity:1;fill:#ffffff;fill-opacity:1;stroke:none;stroke-width:10;stroke-miterlimit:4;stroke-dasharray:none;stroke-opacity:1" />
      <path
         style="opacity:1;fill:#ffffff;fill-opacity:1;stroke:none;stroke-width:10;stroke-miterlimit:4;stroke-dasharray:none;stroke-opacity:1"
         id="path4754"
         sodipodi:type="arc"
         sodipodi:cx="-20.846767"
         sodipodi:cy="-25.509922"
         sodipodi:rx="4.8826866"
         sodipodi:ry="5.9754605"
         sodipodi:start="0"
         sodipodi:end="6.283098"
         sodipodi:open="true"
         d="m -15.964081,-25.509922 a 4.8826866,5.9754605 0 0 1 -4.88258,5.975461 4.8826866,5.9754605 0 0 1 -4.882793,-5.9752 4.8826866,5.9754605 0 0 1 4.882367,-5.975722 4.8826866,5.9754605 0 0 1 4.883006,5.974939"
         transform="scale(-1,-1)" />
    </g>
    <path
       style="opacity:1;fill:#00ff66;fill-opacity:1;stroke:none;stroke-width:10;stroke-miterlimit:4;stroke-dasharray:none;stroke-opacity:1"
       inkscape:transform-center-x="-0.2418728"
       inkscape:transform-center-y="-17.20343"
       d="M 67.714537,37.181105 C 100.22847,36.39181 160.44018,129.46288 160.44018,129.46288 L 0.73138168,129.88514 C 0.63825671,112.40309 0.72044555,112.41804 0.58573072,93.667552 19.56258,67.875078 46.278609,37.701475 67.714537,37.181105 Z"
       id="path4703"
       inkscape:connector-curvature="0"
       sodipodi:nodetypes="scccs" />
    <g
       transform="matrix(-0.60689655,0,0,0.6208402,263.35734,30.843556)"
       id="g4733">
      <path
         d="M 46.884386,17.176479 A 17.466732,7.1245875 0 0 1 29.418035,24.301067 17.466732,7.1245875 0 0 1 11.950922,17.17679 17.466732,7.1245875 0 0 1 29.41651,10.051892 17.466732,7.1245875 0 0 1 46.884386,17.175857"
         sodipodi:open="true"
         sodipodi:end="6.283098"
         sodipodi:start="0"
         sodipodi:ry="7.1245875"
         sodipodi:rx="17.466732"
         sodipodi:cy="17.176479"
         sodipodi:cx="29.417654"
         sodipodi:type="arc"
         id="path4735"
         style="opacity:1;fill:#ffffff;fill-opacity:1;stroke:none;stroke-width:10;stroke-miterlimit:4;stroke-dasharray:none;stroke-opacity:1" />
      <path
         style="opacity:1;fill:#ffffff;fill-opacity:1;stroke:none;stroke-width:10;stroke-miterlimit:4;stroke-dasharray:none;stroke-opacity:1"
         id="path4737"
         sodipodi:type="arc"
         sodipodi:cx="44.12648"
         sodipodi:cy="24.530893"
         sodipodi:rx="17.466732"
         sodipodi:ry="7.1245875"
         sodipodi:start="0"
         sodipodi:end="6.283098"
         sodipodi:open="true"
         d="M 61.593212,24.530893 A 17.466732,7.1245875 0 0 1 44.126861,31.655481 17.466732,7.1245875 0 0 1 26.659748,24.531204 17.466732,7.1245875 0 0 1 44.125336,17.406306 17.466732,7.1245875 0 0 1 61.593212,24.530271" />
      <path
         d="M 78.600292,14.418575 A 17.466732,7.1245875 0 0 1 61.133941,21.543163 17.466732,7.1245875 0 0 1 43.666828,14.418886 17.466732,7.1245875 0 0 1 61.132416,7.2939878 17.466732,7.1245875 0 0 1 78.600292,14.417953"
         sodipodi:open="true"
         sodipodi:end="6.283098"
         sodipodi:start="0"
         sodipodi:ry="7.1245875"
         sodipodi:rx="17.466732"
         sodipodi:cy="14.418575"
         sodipodi:cx="61.13356"
         sodipodi:type="arc"
         id="path4739"
         style="opacity:1;fill:#ffffff;fill-opacity:1;stroke:none;stroke-width:10;stroke-miterlimit:4;stroke-dasharray:none;stroke-opacity:1" />
    </g>
    <path
       style="opacity:1;fill:#80b3ff;fill-opacity:1;stroke:none;stroke-width:10;stroke-miterlimit:4;stroke-dasharray:none;stroke-opacity:1"
       d="m 102.20628,133.61066 27.13786,0 c -152.892353,3.56551 99.72093,18.53265 166.958,34.50425 0.54313,0.12901 2.05661,0.62678 1.99496,1.10258 0.21904,15.34374 0.18327,15.33053 0.29534,28.89096 0,0 0,0 -70.68664,0.10441 68.39634,-30.09795 -303.008328,-61.85838 -125.69952,-64.6022 z"
       id="rect4778"
       inkscape:connector-curvature="0"
       sodipodi:nodetypes="ccscscc" />
    <path
       sodipodi:nodetypes="scccs"
       inkscape:connector-curvature="0"
       id="path4706"
       d="m 225.94574,39.821751 c 20.92723,0.317136 49.43656,29.542319 72.38418,57.471865 0.13597,26.823674 0.31178,26.190814 -0.29031,49.751804 l -190.61134,-6.63443 c 0,0 71.75229,-101.297928 118.51747,-100.589239 z"
       inkscape:transform-center-y="-17.356623"
       inkscape:transform-center-x="1.338689"
       style="opacity:1;fill:#2aff80;fill-opacity:1;stroke:none;stroke-width:10;stroke-miterlimit:4;stroke-dasharray:none;stroke-opacity:1" />
    <path
       style="opacity:1;fill:#241c1c;fill-opacity:0.23270437;stroke:none;stroke-width:10;stroke-miterlimit:4;stroke-dasharray:none;stroke-opacity:1"
       inkscape:transform-center-x="8.3520708"
       inkscape:transform-center-y="-16.660426"
       d="M 51.753952,42.035319 C 30.003488,54.734075 14.12606,75.971444 0.66546112,93.594678 0.61753444,109.4709 0.54796536,109.96654 0.73316227,129.88166 L 84.297957,129.69048 Z"
       id="path4805"
       inkscape:connector-curvature="0"
       sodipodi:nodetypes="ccccc" />
    <g
       id="g4725"
       transform="matrix(1,0,0,0.88931165,42.148326,42.812655)">
      <path
         style="opacity:1;fill:#ffffff;fill-opacity:1;stroke:none;stroke-width:10;stroke-miterlimit:4;stroke-dasharray:none;stroke-opacity:1"
         id="path4727"
         sodipodi:type="arc"
         sodipodi:cx="29.417654"
         sodipodi:cy="17.176479"
         sodipodi:rx="17.466732"
         sodipodi:ry="7.1245875"
         sodipodi:start="0"
         sodipodi:end="6.283098"
         sodipodi:open="true"
         d="M 46.884386,17.176479 A 17.466732,7.1245875 0 0 1 29.418035,24.301067 17.466732,7.1245875 0 0 1 11.950922,17.17679 17.466732,7.1245875 0 0 1 29.41651,10.051892 17.466732,7.1245875 0 0 1 46.884386,17.175857" />
      <path
         d="M 61.593212,24.530893 A 17.466732,7.1245875 0 0 1 44.126861,31.655481 17.466732,7.1245875 0 0 1 26.659748,24.531204 17.466732,7.1245875 0 0 1 44.125336,17.406306 17.466732,7.1245875 0 0 1 61.593212,24.530271"
         sodipodi:open="true"
         sodipodi:end="6.283098"
         sodipodi:start="0"
         sodipodi:ry="7.1245875"
         sodipodi:rx="17.466732"
         sodipodi:cy="24.530893"
         sodipodi:cx="44.12648"
         sodipodi:type="arc"
         id="path4729"
         style="opacity:1;fill:#ffffff;fill-opacity:1;stroke:none;stroke-width:10;stroke-miterlimit:4;stroke-dasharray:none;stroke-opacity:1" />
      <path
         style="opacity:1;fill:#ffffff;fill-opacity:1;stroke:none;stroke-width:10;stroke-miterlimit:4;stroke-dasharray:none;stroke-opacity:1"
         id="path4731"
         sodipodi:type="arc"
         sodipodi:cx="61.13356"
         sodipodi:cy="14.418575"
         sodipodi:rx="17.466732"
         sodipodi:ry="7.1245875"
         sodipodi:start="0"
         sodipodi:end="6.283098"
         sodipodi:open="true"
         d="M 78.600292,14.418575 A 17.466732,7.1245875 0 0 1 61.133941,21.543163 17.466732,7.1245875 0 0 1 43.666828,14.418886 17.466732,7.1245875 0 0 1 61.132416,7.2939878 17.466732,7.1245875 0 0 1 78.600292,14.417953" />
    </g>
    <path
       sodipodi:nodetypes="ccccc"
       inkscape:connector-curvature="0"
       id="path4810"
       d="m 231.65142,40.51437 c 21.60872,5.670796 47.53628,32.74825 66.60916,56.80547 -0.085,28.33736 0.14589,27.968 0.0423,49.94998 l -111.47553,-4.20184 z"
       inkscape:transform-center-y="-19.171559"
       inkscape:transform-center-x="-9.816622"
       style="opacity:1;fill:#241c1c;fill-opacity:0.23270437;stroke:none;stroke-width:10;stroke-miterlimit:4;stroke-dasharray:none;stroke-opacity:1" />
    <g
       id="g4797"
       transform="matrix(-1.3481395,0,0,1.4513813,303.418,37.503625)">
      <path
         style="opacity:1;fill:#ffffff;fill-opacity:1;stroke:none;stroke-width:10;stroke-miterlimit:4;stroke-dasharray:none;stroke-opacity:1"
         id="path4799"
         sodipodi:type="arc"
         sodipodi:cx="29.417654"
         sodipodi:cy="17.176479"
         sodipodi:rx="17.466732"
         sodipodi:ry="7.1245875"
         sodipodi:start="0"
         sodipodi:end="6.283098"
         sodipodi:open="true"
         d="M 46.884386,17.176479 A 17.466732,7.1245875 0 0 1 29.418035,24.301067 17.466732,7.1245875 0 0 1 11.950922,17.17679 17.466732,7.1245875 0 0 1 29.41651,10.051892 17.466732,7.1245875 0 0 1 46.884386,17.175857" />
      <path
         d="M 61.593212,24.530893 A 17.466732,7.1245875 0 0 1 44.126861,31.655481 17.466732,7.1245875 0 0 1 26.659748,24.531204 17.466732,7.1245875 0 0 1 44.125336,17.406306 17.466732,7.1245875 0 0 1 61.593212,24.530271"
         sodipodi:open="true"
         sodipodi:end="6.283098"
         sodipodi:start="0"
         sodipodi:ry="7.1245875"
         sodipodi:rx="17.466732"
         sodipodi:cy="24.530893"
         sodipodi:cx="44.12648"
         sodipodi:type="arc"
         id="path4801"
         style="opacity:1;fill:#ffffff;fill-opacity:1;stroke:none;stroke-width:10;stroke-miterlimit:4;stroke-dasharray:none;stroke-opacity:1" />
      <path
         style="opacity:1;fill:#ffffff;fill-opacity:1;stroke:none;stroke-width:10;stroke-miterlimit:4;stroke-dasharray:none;stroke-opacity:1"
         id="path4803"
         sodipodi:type="arc"
         sodipodi:cx="61.13356"
         sodipodi:cy="14.418575"
         sodipodi:rx="17.466732"
         sodipodi:ry="7.1245875"
         sodipodi:start="0"
         sodipodi:end="6.283098"
         sodipodi:open="true"
         d="M 78.600292,14.418575 A 17.466732,7.1245875 0 0 1 61.133941,21.543163 17.466732,7.1245875 0 0 1 43.666828,14.418886 17.466732,7.1245875 0 0 1 61.132416,7.2939878 17.466732,7.1245875 0 0 1 78.600292,14.417953" />
    </g>
    <path
       style="opacity:1;fill:#c83f00;fill-opacity:1;stroke:none;stroke-width:10;stroke-miterlimit:4;stroke-dasharray:none;stroke-opacity:1"
       d="m 139.98888,159.44257 9.73071,0 0,28.72402 5.86055,2.64299 -22.2562,0.11492 6.66494,-2.75791 z"
       id="rect4248"
       inkscape:connector-curvature="0"
       sodipodi:nodetypes="ccccccc" />
    <path
       sodipodi:type="star"
       style="opacity:1;fill:#165016;fill-opacity:1;stroke:none;stroke-width:10;stroke-miterlimit:4;stroke-dasharray:none;stroke-opacity:1"
       id="path4246"
       sodipodi:sides="3"
       sodipodi:cx="23.442192"
       sodipodi:cy="144.7296"
       sodipodi:r1="19.118382"
       sodipodi:r2="9.5591908"
       sodipodi:arg1="0.47439988"
       sodipodi:arg2="1.5215974"
       inkscape:flatsided="true"
       inkscape:rounded="0"
       inkscape:randomized="0"
       d="M 40.449274,153.46297 7.3753343,155.09148 22.501968,125.63435 Z"
       inkscape:transform-center-x="-0.82945064"
       inkscape:transform-center-y="-6.6094157"
       transform="matrix(1.764372,0,0,1.5136,105.598,-65.657634)" />
    <path
       sodipodi:type="star"
       style="opacity:1;fill:#217821;fill-opacity:1;stroke:none;stroke-width:10;stroke-miterlimit:4;stroke-dasharray:none;stroke-opacity:1"
       id="path4244"
       sodipodi:sides="3"
       sodipodi:cx="155.36198"
       sodipodi:cy="146.56819"
       sodipodi:r1="19.738243"
       sodipodi:r2="9.8691225"
       sodipodi:arg1="0.48447793"
       sodipodi:arg2="1.5316755"
       inkscape:flatsided="true"
       inkscape:rounded="0"
       inkscape:randomized="0"
       d="M 172.82872,155.76121 138.66723,157.09832 154.59,126.84505 Z"
       inkscape:transform-center-x="-0.54475054"
       inkscape:transform-center-y="-5.4986604"
       transform="matrix(1.4113191,0,0,1.1962673,-72.789323,-37.33692)" />
    <path
       sodipodi:type="star"
       style="opacity:1;fill:#2ca02c;fill-opacity:1;stroke:none;stroke-width:10;stroke-miterlimit:4;stroke-dasharray:none;stroke-opacity:1"
       id="path4242"
       sodipodi:sides="3"
       sodipodi:cx="24.361494"
       sodipodi:cy="115.77159"
       sodipodi:r1="19.332678"
       sodipodi:r2="9.6663389"
       sodipodi:arg1="0.49555167"
       sodipodi:arg2="1.5427492"
       inkscape:flatsided="true"
       inkscape:rounded="0"
       inkscape:randomized="0"
       d="M 41.368577,124.96461 7.896566,125.90365 23.819339,96.446517 Z"
       inkscape:transform-center-x="-0.29326634"
       inkscape:transform-center-y="-4.7264423"
       transform="matrix(1.0818457,0,0,1.0282677,119.88559,1.4105366)" />
    <path
       transform="matrix(0.23629408,0,0,0.20127822,103.90904,92.767238)"
       inkscape:transform-center-y="-0.92517693"
       inkscape:transform-center-x="-0.064054419"
       d="M 41.368577,124.96461 7.896566,125.90365 23.819339,96.446517 Z"
       inkscape:randomized="0"
       inkscape:rounded="0"
       inkscape:flatsided="true"
       sodipodi:arg2="1.5427492"
       sodipodi:arg1="0.49555167"
       sodipodi:r2="9.6663389"
       sodipodi:r1="19.332678"
       sodipodi:cy="115.77159"
       sodipodi:cx="24.361494"
       sodipodi:sides="3"
       id="path4256"
       style="opacity:1;fill:#78ff00;fill-opacity:1;stroke:none;stroke-width:10;stroke-miterlimit:4;stroke-dasharray:none;stroke-opacity:1"
       sodipodi:type="star" />
    <path
       inkscape:transform-center-y="-1.0763338"
       inkscape:transform-center-x="-0.11898376"
       d="m 249.31745,111.5638 -34.16148,1.33711 15.92277,-30.25327 z"
       inkscape:randomized="0"
       inkscape:rounded="0"
       inkscape:flatsided="true"
       sodipodi:arg2="1.5316755"
       sodipodi:arg1="0.48447793"
       sodipodi:r2="9.8691225"
       sodipodi:r1="19.738243"
       sodipodi:cy="102.37078"
       sodipodi:cx="231.85072"
       sodipodi:sides="3"
       id="path4258"
       style="opacity:1;fill:#78ff00;fill-opacity:1;stroke:none;stroke-width:10;stroke-miterlimit:4;stroke-dasharray:none;stroke-opacity:1"
       sodipodi:type="star"
       transform="matrix(0.30825686,0,0,0.2341633,38.105589,95.316765)" />
    <rect
       y="124.23939"
       x="108.15826"
       height="6.0274677"
       width="2.1253579"
       id="rect4260"
       style="opacity:1;fill:#c83f00;fill-opacity:1;stroke:none;stroke-width:10;stroke-miterlimit:4;stroke-dasharray:none;stroke-opacity:1" />
    <path
       transform="matrix(0.38536981,0,0,0.29627956,100.60505,80.045259)"
       inkscape:transform-center-y="-1.2937608"
       inkscape:transform-center-x="-0.18116681"
       d="M 40.449274,153.46297 7.3753343,155.09148 22.501968,125.63435 Z"
       inkscape:randomized="0"
       inkscape:rounded="0"
       inkscape:flatsided="true"
       sodipodi:arg2="1.5215974"
       sodipodi:arg1="0.47439988"
       sodipodi:r2="9.5591908"
       sodipodi:r1="19.118382"
       sodipodi:cy="144.7296"
       sodipodi:cx="23.442192"
       sodipodi:sides="3"
       id="path4262"
       style="opacity:1;fill:#008000;fill-opacity:1;stroke:none;stroke-width:10;stroke-miterlimit:4;stroke-dasharray:none;stroke-opacity:1"
       sodipodi:type="star" />
    <path
       sodipodi:type="star"
       style="opacity:1;fill:#008000;fill-opacity:1;stroke:none;stroke-width:10;stroke-miterlimit:4;stroke-dasharray:none;stroke-opacity:1"
       id="path4266"
       sodipodi:sides="3"
       sodipodi:cx="231.85072"
       sodipodi:cy="102.37078"
       sodipodi:r1="19.738243"
       sodipodi:r2="9.8691225"
       sodipodi:arg1="0.48447793"
       sodipodi:arg2="1.5316755"
       inkscape:flatsided="true"
       inkscape:rounded="0"
       inkscape:randomized="0"
       d="m 249.31745,111.5638 -34.16148,1.33711 15.92277,-30.25327 z"
       inkscape:transform-center-x="-0.11898376"
       inkscape:transform-center-y="-1.0763338"
       transform="matrix(0.30825686,0,0,0.2341633,38.105589,95.316765)" />
    <path
       sodipodi:type="star"
       style="opacity:1;fill:#008000;fill-opacity:1;stroke:none;stroke-width:10;stroke-miterlimit:4;stroke-dasharray:none;stroke-opacity:1"
       id="path4264"
       sodipodi:sides="3"
       sodipodi:cx="24.361494"
       sodipodi:cy="115.77159"
       sodipodi:r1="19.332678"
       sodipodi:r2="9.6663389"
       sodipodi:arg1="0.49555167"
       sodipodi:arg2="1.5427492"
       inkscape:flatsided="true"
       inkscape:rounded="0"
       inkscape:randomized="0"
       d="M 41.368577,124.96461 7.896566,125.90365 23.819339,96.446517 Z"
       inkscape:transform-center-x="-0.064054419"
       inkscape:transform-center-y="-0.92517693"
       transform="matrix(0.23629408,0,0,0.20127822,103.90904,92.767238)" />
    <path
       sodipodi:type="star"
       style="opacity:1;fill:#165016;fill-opacity:1;stroke:none;stroke-width:10;stroke-miterlimit:4;stroke-dasharray:none;stroke-opacity:1"
       id="path4270"
       sodipodi:sides="3"
       sodipodi:cx="78.14064"
       sodipodi:cy="131.39973"
       sodipodi:r1="19.738243"
       sodipodi:r2="9.8691225"
       sodipodi:arg1="0.48447793"
       sodipodi:arg2="1.5316755"
       inkscape:flatsided="true"
       inkscape:rounded="0"
       inkscape:randomized="0"
       d="M 95.607371,140.59275 61.445889,141.92986 77.36866,111.67659 Z"
       inkscape:transform-center-x="-0.34443697"
       inkscape:transform-center-y="-3.5332884"
       transform="matrix(0.89235803,0,0,0.76868969,-22.803501,25.445069)" />
    <path
       inkscape:transform-center-y="-2.8080127"
       inkscape:transform-center-x="-0.24305853"
       d="M 48.263329,134.61729 14.101847,135.9544 30.024619,105.70114 Z"
       inkscape:randomized="0"
       inkscape:rounded="0"
       inkscape:flatsided="true"
       sodipodi:arg2="1.5316755"
       sodipodi:arg1="0.48447793"
       sodipodi:r2="9.8691225"
       sodipodi:r1="19.738243"
       sodipodi:cy="125.42428"
       sodipodi:cx="30.796598"
       sodipodi:sides="3"
       id="path4252"
       style="opacity:1;fill:#217821;fill-opacity:1;stroke:none;stroke-width:10;stroke-miterlimit:4;stroke-dasharray:none;stroke-opacity:1"
       sodipodi:type="star"
       transform="matrix(0.62970173,0,0,0.61090109,27.200474,39.696747)" />
    <path
       transform="matrix(0.48269742,0,0,0.52510826,34.729047,44.882355)"
       inkscape:transform-center-y="-2.413664"
       inkscape:transform-center-x="-0.13084836"
       d="M 41.368577,124.96461 7.896566,125.90365 23.819339,96.446517 Z"
       inkscape:randomized="0"
       inkscape:rounded="0"
       inkscape:flatsided="true"
       sodipodi:arg2="1.5427492"
       sodipodi:arg1="0.49555167"
       sodipodi:r2="9.6663389"
       sodipodi:r1="19.332678"
       sodipodi:cy="115.77159"
       sodipodi:cx="24.361494"
       sodipodi:sides="3"
       id="path4250"
       style="opacity:1;fill:#2ca02c;fill-opacity:1;stroke:none;stroke-width:10;stroke-miterlimit:4;stroke-dasharray:none;stroke-opacity:1"
       sodipodi:type="star" />
    <path
       style="opacity:1;fill:#c83f00;fill-opacity:1;stroke:none;stroke-width:10;stroke-miterlimit:4;stroke-dasharray:none;stroke-opacity:1"
       d="m 19.899719,150.19699 5.192683,0 0,29.12132 5.860548,4.13686 -7.837437,-0.97889 -8.15704,1.20871 4.941246,-4.36668 z"
       id="rect4272"
       inkscape:connector-curvature="0"
       sodipodi:nodetypes="cccccccc" />
    <path
       transform="matrix(1.0672761,0,0,1.5302876,-59.291945,-61.457247)"
       inkscape:transform-center-y="-7.0339796"
       inkscape:transform-center-x="-0.41195176"
       d="M 95.607371,140.59275 61.445889,141.92986 77.36866,111.67659 Z"
       inkscape:randomized="0"
       inkscape:rounded="0"
       inkscape:flatsided="true"
       sodipodi:arg2="1.5316755"
       sodipodi:arg1="0.48447793"
       sodipodi:r2="9.8691225"
       sodipodi:r1="19.738243"
       sodipodi:cy="131.39973"
       sodipodi:cx="78.14064"
       sodipodi:sides="3"
       id="path4274"
       style="opacity:1;fill:#165016;fill-opacity:1;stroke:none;stroke-width:10;stroke-miterlimit:4;stroke-dasharray:none;stroke-opacity:1"
       sodipodi:type="star" />
    <path
       transform="matrix(0.75313449,0,0,1.2161661,0.5137009,-33.085375)"
       sodipodi:type="star"
       style="opacity:1;fill:#217821;fill-opacity:1;stroke:none;stroke-width:10;stroke-miterlimit:4;stroke-dasharray:none;stroke-opacity:1"
       id="path4276"
       sodipodi:sides="3"
       sodipodi:cx="30.796598"
       sodipodi:cy="125.42428"
       sodipodi:r1="19.738243"
       sodipodi:r2="9.8691225"
       sodipodi:arg1="0.48447793"
       sodipodi:arg2="1.5316755"
       inkscape:flatsided="true"
       inkscape:rounded="0"
       inkscape:randomized="0"
       d="M 48.263329,134.61729 14.101847,135.9544 30.024619,105.70114 Z"
       inkscape:transform-center-x="-0.29070226"
       inkscape:transform-center-y="-5.5901234" />
    <path
       sodipodi:type="star"
       style="opacity:1;fill:#2ca02c;fill-opacity:1;stroke:none;stroke-width:10;stroke-miterlimit:4;stroke-dasharray:none;stroke-opacity:1"
       id="path4278"
       sodipodi:sides="3"
       sodipodi:cx="24.361494"
       sodipodi:cy="115.77159"
       sodipodi:r1="19.332678"
       sodipodi:r2="9.6663389"
       sodipodi:arg1="0.49555167"
       sodipodi:arg2="1.5427492"
       inkscape:flatsided="true"
       inkscape:rounded="0"
       inkscape:randomized="0"
       d="M 41.368577,124.96461 7.896566,125.90365 23.819339,96.446517 Z"
       inkscape:transform-center-x="-0.15649698"
       inkscape:transform-center-y="-4.8050576"
       transform="matrix(0.57731472,0,0,1.045372,9.5180081,-22.762)" />
    <path
       style="opacity:1;fill:#c83f00;fill-opacity:1;stroke:none;stroke-width:10;stroke-miterlimit:4;stroke-dasharray:none;stroke-opacity:1"
       d="m 76.914719,165.0873 3.621533,0 0,19.15469 2.55955,5.22828 -8.171844,0.12188 1.990761,-5.2689 z"
       id="rect4280"
       inkscape:connector-curvature="0"
       sodipodi:nodetypes="ccccccc" />
    <path
       sodipodi:type="star"
       style="opacity:1;fill:#165016;fill-opacity:1;stroke:none;stroke-width:10;stroke-miterlimit:4;stroke-dasharray:none;stroke-opacity:1"
       id="path4282"
       sodipodi:sides="3"
       sodipodi:cx="78.14064"
       sodipodi:cy="131.39973"
       sodipodi:r1="19.738243"
       sodipodi:r2="9.8691225"
       sodipodi:arg1="0.48447793"
       sodipodi:arg2="1.5316755"
       inkscape:flatsided="true"
       inkscape:rounded="0"
       inkscape:randomized="0"
       d="M 95.607371,140.59275 61.445889,141.92986 77.36866,111.67659 Z"
       inkscape:transform-center-x="-0.2873074"
       inkscape:transform-center-y="-4.721024"
       transform="matrix(0.74435042,0,0,1.027089,21.684071,23.030503)" />
    <path
       inkscape:transform-center-y="-3.7519453"
       inkscape:transform-center-x="-0.20274461"
       d="M 48.263329,134.61729 14.101847,135.9544 30.024619,105.70114 Z"
       inkscape:randomized="0"
       inkscape:rounded="0"
       inkscape:flatsided="true"
       sodipodi:arg2="1.5316755"
       sodipodi:arg1="0.48447793"
       sodipodi:r2="9.8691225"
       sodipodi:r1="19.738243"
       sodipodi:cy="125.42428"
       sodipodi:cx="30.796598"
       sodipodi:sides="3"
       id="path4284"
       style="opacity:1;fill:#217821;fill-opacity:1;stroke:none;stroke-width:10;stroke-miterlimit:4;stroke-dasharray:none;stroke-opacity:1"
       sodipodi:type="star"
       transform="matrix(0.52525862,0,0,0.81625887,63.394326,42.072961)" />
    <path
       transform="matrix(0.40263663,0,0,0.70162634,69.6742,49.001741)"
       inkscape:transform-center-y="-3.2250287"
       inkscape:transform-center-x="-0.10914559"
       d="M 41.368577,124.96461 7.896566,125.90365 23.819339,96.446517 Z"
       inkscape:randomized="0"
       inkscape:rounded="0"
       inkscape:flatsided="true"
       sodipodi:arg2="1.5427492"
       sodipodi:arg1="0.49555167"
       sodipodi:r2="9.6663389"
       sodipodi:r1="19.332678"
       sodipodi:cy="115.77159"
       sodipodi:cx="24.361494"
       sodipodi:sides="3"
       id="path4286"
       style="opacity:1;fill:#2ca02c;fill-opacity:1;stroke:none;stroke-width:10;stroke-miterlimit:4;stroke-dasharray:none;stroke-opacity:1"
       sodipodi:type="star" />
    <rect
       style="opacity:1;fill:#c83f00;fill-opacity:1;stroke:none;stroke-width:10;stroke-miterlimit:4;stroke-dasharray:none;stroke-opacity:1"
       id="rect4288"
       width="3.6215334"
       height="21.010868"
       x="277.78214"
       y="134.2907" />
    <path
       transform="matrix(0.74435042,0,0,1.027089,222.55148,-7.7661023)"
       inkscape:transform-center-y="-4.721024"
       inkscape:transform-center-x="-0.2873074"
       d="M 95.607371,140.59275 61.445889,141.92986 77.36866,111.67659 Z"
       inkscape:randomized="0"
       inkscape:rounded="0"
       inkscape:flatsided="true"
       sodipodi:arg2="1.5316755"
       sodipodi:arg1="0.48447793"
       sodipodi:r2="9.8691225"
       sodipodi:r1="19.738243"
       sodipodi:cy="131.39973"
       sodipodi:cx="78.14064"
       sodipodi:sides="3"
       id="path4290"
       style="opacity:1;fill:#165016;fill-opacity:1;stroke:none;stroke-width:10;stroke-miterlimit:4;stroke-dasharray:none;stroke-opacity:1"
       sodipodi:type="star" />
    <path
       transform="matrix(0.52525862,0,0,0.81625887,264.26174,11.276356)"
       sodipodi:type="star"
       style="opacity:1;fill:#217821;fill-opacity:1;stroke:none;stroke-width:10;stroke-miterlimit:4;stroke-dasharray:none;stroke-opacity:1"
       id="path4292"
       sodipodi:sides="3"
       sodipodi:cx="30.796598"
       sodipodi:cy="125.42428"
       sodipodi:r1="19.738243"
       sodipodi:r2="9.8691225"
       sodipodi:arg1="0.48447793"
       sodipodi:arg2="1.5316755"
       inkscape:flatsided="true"
       inkscape:rounded="0"
       inkscape:randomized="0"
       d="M 48.263329,134.61729 14.101847,135.9544 30.024619,105.70114 Z"
       inkscape:transform-center-x="-0.20274461"
       inkscape:transform-center-y="-3.7519453" />
    <path
       sodipodi:type="star"
       style="opacity:1;fill:#2ca02c;fill-opacity:1;stroke:none;stroke-width:10;stroke-miterlimit:4;stroke-dasharray:none;stroke-opacity:1"
       id="path4294"
       sodipodi:sides="3"
       sodipodi:cx="24.361494"
       sodipodi:cy="115.77159"
       sodipodi:r1="19.332678"
       sodipodi:r2="9.6663389"
       sodipodi:arg1="0.49555167"
       sodipodi:arg2="1.5427492"
       inkscape:flatsided="true"
       inkscape:rounded="0"
       inkscape:randomized="0"
       d="M 41.368577,124.96461 7.896566,125.90365 23.819339,96.446517 Z"
       inkscape:transform-center-x="-0.10914559"
       inkscape:transform-center-y="-3.2250287"
       transform="matrix(0.40263663,0,0,0.70162634,270.54161,18.205136)" />
    <path
       style="opacity:1;fill:#000000;fill-opacity:1;stroke:none;stroke-width:10;stroke-miterlimit:4;stroke-dasharray:none;stroke-opacity:1"
       d="m 206.00551,21.645062 c 3.66928,0.359112 3.6114,0.79924 4.53531,2.381757 0.24072,-2.776205 2.96487,-3.388059 3.59134,-3.089884 -2.76524,-0.861619 -3.71506,1.627792 -3.77127,1.67643 -0.97531,-1.035184 -1.97633,-1.449752 -4.35538,-0.968303 z"
       id="rect4190"
       inkscape:connector-curvature="0"
       sodipodi:nodetypes="ccccc" />
    <path
       sodipodi:nodetypes="ccccc"
       inkscape:connector-curvature="0"
       id="path4197"
       d="m 201.13128,16.769729 c -3.66928,0.359112 -3.6114,0.79924 -4.53531,2.381757 -0.24072,-2.776205 -2.96487,-3.388059 -3.59134,-3.089884 2.76524,-0.861619 3.71506,1.627792 3.77127,1.67643 0.97531,-1.035184 1.97633,-1.449752 4.35538,-0.968303 z"
       style="opacity:1;fill:#000000;fill-opacity:1;stroke:none;stroke-width:10;stroke-miterlimit:4;stroke-dasharray:none;stroke-opacity:1" />
    <path
       sodipodi:nodetypes="ccccc"
       inkscape:connector-curvature="0"
       id="path4199"
       d="m 194.30471,30.480601 c 2.34852,0.252064 2.31147,0.560993 2.90282,1.671773 0.15407,-1.948639 1.89766,-2.378104 2.29863,-2.168812 -1.76989,-0.604777 -2.37782,1.142559 -2.4138,1.176698 -0.62424,-0.726603 -1.26494,-1.017591 -2.78765,-0.679659 z"
       style="opacity:1;fill:#000000;fill-opacity:1;stroke:none;stroke-width:10;stroke-miterlimit:4;stroke-dasharray:none;stroke-opacity:1" />
  </g>
</svg>
