<?xml version="1.0" encoding="UTF-8" standalone="no"?>
<!-- Created with Inkscape (http://www.inkscape.org/) -->

<svg
   xmlns:dc="http://purl.org/dc/elements/1.1/"
   xmlns:cc="http://creativecommons.org/ns#"
   xmlns:rdf="http://www.w3.org/1999/02/22-rdf-syntax-ns#"
   xmlns:svg="http://www.w3.org/2000/svg"
   xmlns="http://www.w3.org/2000/svg"
   xmlns:sodipodi="http://sodipodi.sourceforge.net/DTD/sodipodi-0.dtd"
   xmlns:inkscape="http://www.inkscape.org/namespaces/inkscape"
   width="297mm"
   height="210mm"
   viewBox="0 0 297 210"
   id="svg5643"
   version="1.1"
   inkscape:version="0.91 r13725"
   sodipodi:docname="img05.svg">
  <defs
     id="defs5645">
    <filter
       inkscape:collect="always"
       style="color-interpolation-filters:sRGB"
       id="filter6297"
       x="-0.054919298"
       width="1.1098386"
       y="-0.85374551"
       height="2.707491">
      <feGaussianBlur
         inkscape:collect="always"
         stdDeviation="3.5972275"
         id="feGaussianBlur6299" />
    </filter>
  </defs>
  <sodipodi:namedview
     inkscape:document-units="mm"
     pagecolor="#ffffff"
     bordercolor="#666666"
     borderopacity="1.0"
     inkscape:pageopacity="0.0"
     inkscape:pageshadow="2"
     inkscape:zoom="0.30699632"
     inkscape:cx="42.082694"
     inkscape:cy="254.30029"
     inkscape:current-layer="layer1"
     id="namedview5647"
     showgrid="false"
     inkscape:window-width="1331"
     inkscape:window-height="744"
     inkscape:window-x="35"
     inkscape:window-y="24"
     inkscape:window-maximized="1" />
  <metadata
     id="metadata5649">
    <rdf:RDF>
      <cc:Work
         rdf:about="">
        <dc:format>image/svg+xml</dc:format>
        <dc:type
           rdf:resource="http://purl.org/dc/dcmitype/StillImage" />
        <dc:title></dc:title>
      </cc:Work>
    </rdf:RDF>
  </metadata>
  <g
     inkscape:label="Layer 1"
     inkscape:groupmode="layer"
     id="layer1">
    <ellipse
       style="opacity:1;fill:none;fill-opacity:1;stroke:#cccccc;stroke-width:21.97672653;stroke-miterlimit:4;stroke-dasharray:none;stroke-opacity:1"
       id="path6192"
       cx="149.87936"
       cy="94.972733"
       rx="74.047867"
       ry="72.986938" />
    <ellipse
       style="opacity:1;fill:none;fill-opacity:1;stroke:#cccccc;stroke-width:2.98271799;stroke-miterlimit:4;stroke-dasharray:none;stroke-opacity:1"
       id="path6226"
       cx="149.66187"
       cy="95.177727"
       rx="56.104263"
       ry="57.062916" />
    <rect
       style="opacity:1;fill:#ff3b8a;fill-opacity:1;stroke:none;stroke-width:28.22222328;stroke-miterlimit:4;stroke-dasharray:none;stroke-opacity:1"
       id="rect6196"
       width="18.993353"
       height="52.803825"
       x="17.803232"
       y="69.087296"
       ry="9.5496283"
       transform="matrix(0.68338372,-0.73005937,0.76224243,0.64729165,0,0)"
       inkscape:transform-center-x="-1.2230324"
       inkscape:transform-center-y="1.5887249" />
    <rect
       transform="matrix(-0.66715659,-0.7449175,-0.77611636,0.63058972,0,0)"
       ry="9.5596418"
       y="-153.68547"
       x="-180.09991"
       height="52.859188"
       width="18.973192"
       id="rect6214"
       style="opacity:1;fill:#ff3b8a;fill-opacity:1;stroke:none;stroke-width:28.22222328;stroke-miterlimit:4;stroke-dasharray:none;stroke-opacity:1" />
    <rect
       style="opacity:1;fill:#ff3b8a;fill-opacity:1;stroke:none;stroke-width:28.22222328;stroke-miterlimit:4;stroke-dasharray:none;stroke-opacity:1"
       id="rect6216"
       width="18.975498"
       height="52.852863"
       x="-30.252914"
       y="-281.24353"
       ry="9.5584974"
       transform="matrix(-0.66903435,0.74323148,-0.77454644,-0.63251704,0,0)" />
    <rect
       transform="matrix(0.7022861,0.71189482,0.74516244,-0.666883,0,0)"
       ry="9.5375929"
       y="-66.559891"
       x="158.33418"
       height="52.73727"
       width="19.017529"
       id="rect6218"
       style="opacity:1;fill:#ff3b8a;fill-opacity:1;stroke:none;stroke-width:28.22222328;stroke-miterlimit:4;stroke-dasharray:none;stroke-opacity:1" />
    <path
       style="opacity:1;fill:#cccccc;fill-opacity:1;stroke:none;stroke-width:10;stroke-miterlimit:4;stroke-dasharray:none;stroke-opacity:1"
       id="path6232"
       d="m 127.69995,75.519122 c 0.31739,-1.145458 0.35848,-2.358455 0.96554,-3.409892 0.23151,-0.423584 0.45021,-0.848172 0.57211,-1.311611 0.73307,-1.038328 2.06568,-1.63444 3.14825,-2.336538 1.66304,-1.474868 3.60902,-2.584105 5.44916,-3.83422 0.9929,-0.688405 2.10587,-1.285109 2.97317,-2.120698 0.72921,-0.701204 1.51879,-1.236791 2.40308,-1.754064 4.67035,-2.815495 8.60727,-6.308333 13.95048,-6.677351 0.82074,-0.02881 1.64365,0.008 2.46548,0.0093 0.55823,0.117067 1.22456,-0.139216 1.77228,0.0067 0.30973,0.08252 0.56991,0.285789 0.86172,0.415057 1.01099,0.340823 1.48595,1.393064 2.47477,1.834834 1.13577,0.661023 2.02247,1.6131 2.90712,2.549726 0.89049,0.838138 1.88797,1.558298 2.83605,2.33747 0.85381,0.668764 1.53356,1.514846 2.33059,2.237601 0.75889,0.556699 1.12117,1.395699 1.32494,2.26267 0.16097,0.710957 0.15278,1.437531 0.16125,2.160372 -0.006,0.795465 -0.0214,1.590985 -0.0162,2.386493 0.004,0.818114 -9.4e-4,1.635326 -0.0178,2.453394 0.0237,0.959629 0.006,1.918288 -0.0136,2.877702 -0.0681,1.396683 -0.42436,2.722969 -0.98962,4.001717 -0.483,1.470556 -1.06661,2.888386 -1.83879,4.241318 -0.61961,1.201358 -1.44883,2.264337 -2.30134,3.316701 -0.71313,0.746659 -1.35992,1.533643 -2.13775,2.221311 -3.71654,2.84398 -7.84652,6.336144 -12.7,6.605554 -5.14386,-0.22006 3.43873,-2.335276 10.0106,-5.77428 -3.79135,3.262274 -8.05548,6.521578 -13.06833,6.508518 -1.10067,-0.0441 -2.12272,0.36822 -3.20528,0.584914 -1.01002,0.12707 -2.02834,0.19849 -3.04506,0.26059 -0.79896,-0.0333 -1.59931,-0.0186 -2.39896,-0.0272 -1.24042,-0.14787 -2.35589,0.12557 -3.52521,0.483894 -3.4862,0.978208 -16.06669,8.719326 9.6453,-5.38106 0.0945,-0.0518 -0.19105,0.100974 -0.29122,0.141904 -0.46574,0.19037 -0.23897,-0.0291 -0.51162,0.41312 -0.3058,0.814868 -0.29464,1.702082 -0.29064,2.55811 0.022,0.928438 -0.006,1.856232 0.002,2.78479 0.0176,1.206528 -0.0656,2.417782 0.0518,3.620462 0.23457,1.01349 0.57334,1.99194 0.68575,3.0262 0.0163,1.20821 0.41768,2.36485 0.70131,3.5317 0.20207,1.01679 0.26584,2.05386 0.29002,3.08696 0.0993,0.59183 0.42775,1.12228 0.64606,1.68449 0.0891,0.23706 0.0481,0.12642 0.12359,0.33181 0,0 -11.28728,5.89669 -11.28728,5.89669 l 0,0 c -0.0413,-0.1865 -0.0175,-0.0858 -0.0732,-0.30184 -0.20715,-0.70063 -0.59459,-1.32752 -0.76828,-2.03946 -0.0139,-0.96463 -0.0136,-1.93398 -0.17259,-2.88943 -0.22999,-1.22158 -0.66518,-2.40973 -0.74936,-3.64961 -0.10366,-1.01241 -0.36814,-1.99365 -0.63446,-2.97714 -0.26611,-1.24136 -0.10954,-2.51098 -0.16248,-3.77381 1.4e-4,-0.92496 -0.0425,-1.84885 -0.0356,-2.7739 0.006,-0.97193 -0.007,-1.944928 0.1085,-2.912522 0.068,-0.366384 0.0304,-0.757998 0.17338,-1.103998 0.0462,-0.11173 0.16439,-0.187874 0.27282,-0.248264 8.51679,-4.743592 7.42931,-5.320266 12.38967,-6.452344 1.24197,-0.242754 2.48885,-0.278304 3.75438,-0.254384 0.79448,-0.005 1.59244,0.0198 2.38388,-0.0557 0.96031,-0.05 1.92103,-0.13556 2.85668,-0.36006 1.11259,-0.237804 2.1916,-0.502734 3.34093,-0.494694 0.37662,-0.0693 0.70194,-0.12884 1.04388,-0.301124 0.0908,-0.0457 0.35453,-0.19808 0.26587,-0.1486 -10.73874,5.993704 -14.11277,8.080176 -10.40519,5.79299 21.69346,-11.576862 6.85717,-4.845662 12.14017,-6.201144 0.24088,-0.0784 1.46408,-0.708464 0.85532,-0.36897 -10.81585,6.03183 -14.09499,7.947076 -10.27472,5.71912 0.89411,-0.555634 1.63733,-1.224588 2.24888,-2.069666 1.0297,-0.827814 1.81931,-1.965892 2.46775,-3.08389 0.83763,-1.254527 1.55588,-2.562061 1.87801,-4.032484 0.43467,-1.207108 1.13507,-2.278306 1.19664,-3.602688 -0.0197,-0.955005 -0.0374,-1.90925 -0.0137,-2.864489 -0.0166,-0.81434 -0.0214,-1.627711 -0.0132,-2.4421 0.01,-0.793169 0.004,-1.586486 0.007,-2.379672 0.01,-0.654765 0.0162,-1.311902 -0.0412,-1.964888 -0.0918,-0.686752 -0.35432,-1.194078 -0.93051,-1.637772 -0.72223,-0.737416 -1.41894,-1.505334 -2.22102,-2.164845 -1.01598,-0.789054 -2.03355,-1.574412 -2.9357,-2.485505 -0.80326,-0.866589 -1.68073,-1.675436 -2.7559,-2.228344 -0.79328,-0.557951 -1.36936,-1.391202 -2.35686,-1.628125 -0.74835,-0.203766 -1.58732,0.01621 -2.36595,-0.06582 -0.79374,-0.004 -1.59054,-0.0051 -2.37635,0.117389 -4.44745,0.755677 -11.32215,6.589093 8.18426,-5.061109 -0.31991,0.195774 -0.62377,0.417332 -0.95744,0.590734 -0.28945,0.150426 -0.66811,0.138384 -0.92236,0.338895 -0.12263,0.09671 -0.15517,0.26561 -0.23275,0.398411 -0.11613,0.08036 -0.23226,0.160727 -0.34839,0.241088 -1.24437,0.887814 0.52551,-0.430612 -0.71445,0.701643 -0.67604,0.617313 -1.6004,1.056446 -2.3282,1.60753 -0.90027,0.549961 -1.71447,1.207763 -2.62248,1.744896 -1.02239,0.6048 -2.1181,1.082185 -2.88669,2.014686 -1.92035,1.673557 0.24386,-0.08903 -1.66051,1.131968 -0.23847,0.152903 -0.57734,0.583643 -0.90341,0.690848 -0.0996,0.03273 -0.21522,-0.02878 -0.31575,9.86e-4 -0.0722,0.02144 -0.11365,0.0956 -0.17047,0.143399 -0.42655,0.05296 -0.48004,0.837867 -0.72233,1.132332 -0.19667,0.398464 -0.57411,0.726187 -0.7342,1.132271 -0.24524,0.622029 -0.22016,1.343274 -0.39909,1.981161 0,0 -11.47547,5.332749 -11.47547,5.332749 z"
       inkscape:connector-curvature="0" />
    <path
       style="opacity:1;fill:#cccccc;fill-opacity:1;stroke:none;stroke-width:10;stroke-miterlimit:4;stroke-dasharray:none;stroke-opacity:1"
       id="path6234"
       d="m 133.65683,129.36547 c 5.13486,-3.83928 10.91663,-6.67686 17.15507,-8.2051 1.8202,-0.46617 3.71659,-0.56007 5.59061,-0.64583 1.18385,0.0493 2.42676,-0.20423 3.55226,0.19014 0.87568,0.2759 1.46804,0.54521 1.89573,1.33642 0.24436,0.84844 0.21628,1.73439 0.23872,2.60633 -0.0285,0.51682 0.023,1.03456 -5.3e-4,1.55093 -0.0258,0.50129 0.002,1.00303 -0.0108,1.5043 0.0745,5.17237 -2.90554,2.90973 -11.4108,7.49064 -0.0963,-0.004 -0.37249,0.0347 -0.28881,-0.011 3.60166,-1.96946 7.26381,-3.83569 10.88006,-5.78047 0.12175,-0.0655 -0.30235,0.0343 -0.39456,0.13476 -0.0708,0.0772 -0.0638,0.21739 -0.15611,0.26961 -3.71033,2.09728 -7.47527,4.10455 -11.21291,6.15682 -0.62977,-0.007 -1.25067,0.0253 -1.88135,-9e-4 -0.81338,-0.003 -1.62666,-0.0114 -2.44002,-0.0186 -1.09758,-0.0103 -2.19524,-0.006 -3.29286,-0.008 -1.02953,-0.053 -2.11088,0.18596 -3.07085,-0.20422 -0.58423,-0.30965 -1.13119,-0.52974 -1.78417,-0.62927 -0.86593,-0.007 -1.35949,-1.07725 -1.57426,-1.75693 0.0169,-0.94546 0.38373,-1.85218 0.80982,-2.69383 3.5963,-3.42964 8.5847,-5.98784 13.19044,-7.64561 0.528,-0.035 0.31508,0.0696 0.65173,-0.28848 -3.55758,1.96777 -7.11602,3.93412 -10.67273,5.90332 -0.19057,0.10551 0.42493,-0.10039 0.65859,-0.4915 2.83318,-3.70768 8.49989,-8.7456 12.71967,-6.04375 0.0542,0.0407 0.10856,0.0814 0.16285,0.12204 0,0 -10.80039,6.68395 -10.80039,6.68395 l 0,0 c -0.0266,-0.007 -0.0533,-0.0136 -0.0799,-0.0204 -0.31479,-0.0345 -0.55128,0.17629 -0.4212,0.10587 3.60069,-1.94943 7.19781,-3.9049 10.79671,-5.85736 -0.4511,0.0514 -0.25918,-0.0315 -0.58614,0.22522 -0.35121,0.24304 -0.16568,0.58842 -0.52917,0.7942 -7.85073,4.44447 -7.50969,4.8551 -11.92104,6.5006 -4.35254,2.35595 14.31582,-8.11085 9.83658,-5.52727 -0.0571,0.033 -0.74607,0.60774 -0.78236,0.6263 -0.14495,0.0741 -0.31707,0.0827 -0.47561,0.12412 -0.74369,0.45589 -0.80449,1.18317 -1.13726,1.88597 -0.45628,-0.0382 0.57258,0.58473 0.72193,0.37962 0.58214,0.1954 1.10492,0.52642 1.71687,0.6359 0.95822,-0.044 1.92081,0.01 2.87999,-0.006 1.10395,-0.002 2.20792,0.004 3.31186,-0.002 0.81499,-0.004 1.63017,-8.9e-4 2.44487,-0.0244 0.53911,-0.0477 1.14779,-0.0934 1.57706,-0.43452 -3.59229,1.98498 -7.21003,3.92825 -10.77687,5.95493 -0.0764,0.0434 0.18666,0.0562 0.26573,0.0176 0.1639,-0.0802 0.11335,-0.37232 0.27316,-0.45978 8.97537,-4.91184 7.50546,-4.20741 11.5362,-6.12888 -3.60783,1.98192 -7.23118,3.93812 -10.82349,5.94576 -0.0541,0.0302 0.12531,-0.005 0.1878,-0.002 0.16007,0.01 0.31684,0.19813 0.46127,0.13127 0.14837,-0.0686 -0.15904,-0.41763 0.005,-0.47371 -0.0125,-0.50191 0.0155,-1.00432 -0.005,-1.50631 -0.016,-0.52109 0.0548,-1.04226 0.0327,-1.56404 0.0262,-0.70309 0.01,-1.40583 0.002,-2.10827 -0.18292,-0.10249 -0.80401,-0.39202 -1.19879,-0.4177 -1.10866,5.1e-4 -2.21807,-0.0245 -3.3258,0.036 -1.79571,0.0852 -3.58584,0.28558 -5.31238,0.79025 -1.16397,0.34816 -2.33344,0.69663 -3.48144,1.091 -0.39142,0.13447 -1.51774,0.63909 -1.16415,0.42941 11.93763,-7.07921 12.76982,-7.72293 9.3103,-5.18361 0,0 -11.85326,4.51753 -11.85326,4.51753 z"
       inkscape:connector-curvature="0" />
    <ellipse
       style="opacity:1;fill:#cccccc;fill-opacity:1;stroke:none;stroke-width:10;stroke-miterlimit:4;stroke-dasharray:none;stroke-opacity:1;filter:url(#filter6297)"
       id="path6255"
       cx="148.46722"
       cy="189.31572"
       rx="78.600296"
       ry="5.056159" />
  </g>
</svg>
