<?xml version="1.0" encoding="UTF-8" standalone="no"?>
<!-- Created with Inkscape (http://www.inkscape.org/) -->

<svg
   xmlns:dc="http://purl.org/dc/elements/1.1/"
   xmlns:cc="http://creativecommons.org/ns#"
   xmlns:rdf="http://www.w3.org/1999/02/22-rdf-syntax-ns#"
   xmlns:svg="http://www.w3.org/2000/svg"
   xmlns="http://www.w3.org/2000/svg"
   xmlns:sodipodi="http://sodipodi.sourceforge.net/DTD/sodipodi-0.dtd"
   xmlns:inkscape="http://www.inkscape.org/namespaces/inkscape"
   width="210mm"
   height="297mm"
   viewBox="0 0 744.09448819 1052.3622047"
   id="svg2"
   version="1.1"
   inkscape:version="0.91 r13725"
   sodipodi:docname="nerd2-text.svg">
  <defs
     id="defs4" />
  <sodipodi:namedview
     id="base"
     pagecolor="#ffffff"
     bordercolor="#666666"
     borderopacity="1.0"
     inkscape:pageopacity="0.0"
     inkscape:pageshadow="2"
     inkscape:zoom="0.12374369"
     inkscape:cx="-560.61089"
     inkscape:cy="456.93214"
     inkscape:document-units="px"
     inkscape:current-layer="layer1"
     showgrid="false"
     showguides="true"
     inkscape:guide-bbox="true"
     inkscape:window-width="1331"
     inkscape:window-height="744"
     inkscape:window-x="35"
     inkscape:window-y="24"
     inkscape:window-maximized="1" />
  <metadata
     id="metadata7">
    <rdf:RDF>
      <cc:Work
         rdf:about="">
        <dc:format>image/svg+xml</dc:format>
        <dc:type
           rdf:resource="http://purl.org/dc/dcmitype/StillImage" />
        <dc:title />
      </cc:Work>
    </rdf:RDF>
  </metadata>
  <g
     inkscape:label="Layer 1"
     inkscape:groupmode="layer"
     id="layer1">
    <rect
       style="opacity:1;fill:#cccccc;fill-opacity:1;stroke:none;stroke-width:0.03543307;stroke-miterlimit:4;stroke-dasharray:none;stroke-opacity:0.43147212"
       id="rect4196"
       width="711.14722"
       height="501.03561"
       x="16.162573"
       y="260.40265"
       inkscape:export-xdpi="89.900002"
       inkscape:export-ydpi="89.900002" />
    <g
       transform="matrix(0.60232203,0,0,0.95911621,484.12981,-74.635622)"
       style="font-style:normal;font-weight:normal;font-size:295.45355225px;line-height:125%;font-family:sans-serif;letter-spacing:0px;word-spacing:0px;fill:#000000;fill-opacity:1;stroke:none;stroke-width:1px;stroke-linecap:butt;stroke-linejoin:miter;stroke-opacity:1"
       id="text4289"
       inkscape:export-xdpi="89.900002"
       inkscape:export-ydpi="89.900002">
      <path
         d="m -115.65633,623.12527 -134.18959,48.7815 c 0,0 8.35551,24.62874 43.2873,27.32423 26.01457,3.13757 43.4242,-10.63536 54.72366,-24.48879 l 34.14903,20.69812 c -7.07511,6.25072 -26.76212,37.665 -85.14752,39.16882 -66.42016,-3.72848 -97.00845,-45.12002 -97.85669,-90.49881 1.25054,-44.32674 28.42446,-78.55876 78.06288,-87.62517 70.66738,-10.42465 103.69684,48.07067 106.97093,66.6401 z m -52.34614,-13.99887 c -10.74254,-18.52436 -35.33155,-25.51321 -57.37174,-15.23053 -21.43271,8.91428 -30.26068,26.67119 -32.33309,48.23456 z"
         id="path4300"
         inkscape:connector-curvature="0"
         style="opacity:1;fill:#000000;fill-opacity:1"
         sodipodi:nodetypes="ccccccccccccc" />
      <path
         d="M 0.76251236,589.59767 C -23.859154,587.31645 -51.591989,601.67656 -53.905858,627.0164 l -3.035468,107.13544 -40.348548,0 1.517748,-174.78782 43.384004,-0.33876 -0.379434,9.8578 c 10.890376,-15.17529 61.7637454,-17.92773 71.598618,-8.24517 z"
         id="path4302"
         inkscape:connector-curvature="0"
         style="opacity:1;fill:#000000;fill-opacity:1"
         sodipodi:nodetypes="ccccccccc" />
      <path
         d="m 144.06244,568.98352 2.2766,-98.9421 44.75747,-1.35504 -2.2766,266.14298 -43.85723,-0.23954 0.61749,-9.43018 C 116.87513,740.89544 54.772949,743.21305 19.856822,695.65533 -33.25225,607.41188 64.478792,530.23111 144.06244,568.98352 Z m -49.093339,125.4546 c 73.679609,-4.53945 61.193389,-95.50791 2.276602,-96.76565 -68.1145,5.05096 -57.352153,98.53023 -2.276602,96.76565 z"
         id="path4304"
         inkscape:connector-curvature="0"
         style="opacity:1"
         sodipodi:nodetypes="ccccccccccc" />
    </g>
    <g
       transform="matrix(1.3790851,0,0,1.6885486,685.54823,-535.31971)"
       style="font-style:normal;font-weight:normal;font-size:206.5990448px;line-height:125%;font-family:sans-serif;letter-spacing:0px;word-spacing:0px;fill:#2ac0c7;fill-opacity:1;stroke:none;stroke-width:1px;stroke-linecap:butt;stroke-linejoin:miter;stroke-opacity:1"
       id="text4320"
       inkscape:export-xdpi="89.900002"
       inkscape:export-ydpi="89.900002">
      <path
         d="m -403.67927,537.08216 -0.45024,-0.27213 98.18614,103.68309 -0.23437,-103.13884 19.77218,-0.27212 -0.46872,153.33275 0.21586,0 -98.65486,-102.86672 -0.46873,103.13884 -18.13163,0 z"
         id="path4329"
         inkscape:connector-curvature="0"
         sodipodi:nodetypes="ccccccccccc"
         style="opacity:1;fill:#000000;fill-opacity:1" />
    </g>
  </g>
</svg>
