<?xml version="1.0" encoding="UTF-8" standalone="no"?>
<!-- Created with Inkscape (http://www.inkscape.org/) -->

<svg
   xmlns:osb="http://www.openswatchbook.org/uri/2009/osb"
   xmlns:dc="http://purl.org/dc/elements/1.1/"
   xmlns:cc="http://creativecommons.org/ns#"
   xmlns:rdf="http://www.w3.org/1999/02/22-rdf-syntax-ns#"
   xmlns:svg="http://www.w3.org/2000/svg"
   xmlns="http://www.w3.org/2000/svg"
   xmlns:sodipodi="http://sodipodi.sourceforge.net/DTD/sodipodi-0.dtd"
   xmlns:inkscape="http://www.inkscape.org/namespaces/inkscape"
   width="297mm"
   height="210mm"
   viewBox="0 0 297 210"
   id="svg4152"
   version="1.1"
   inkscape:version="0.91 r13725"
   sodipodi:docname="products.svg">
  <defs
     id="defs4154">
    <linearGradient
       osb:paint="solid"
       id="linearGradient4434">
      <stop
         id="stop4436"
         offset="0"
         style="stop-color:#aa00d4;stop-opacity:1;" />
    </linearGradient>
    <filter
       id="filter4556"
       inkscape:label="Drop Shadow"
       style="color-interpolation-filters:sRGB;">
      <feFlood
         id="feFlood4558"
         result="flood"
         flood-color="rgb(0,0,0)"
         flood-opacity="0.419608" />
      <feComposite
         id="feComposite4560"
         result="composite1"
         operator="in"
         in2="SourceGraphic"
         in="flood" />
      <feGaussianBlur
         id="feGaussianBlur4562"
         result="blur"
         stdDeviation="20.3"
         in="composite1" />
      <feOffset
         id="feOffset4564"
         result="offset"
         dy="17.9"
         dx="19.3" />
      <feComposite
         id="feComposite4566"
         result="composite2"
         operator="over"
         in2="offset"
         in="SourceGraphic" />
    </filter>
  </defs>
  <sodipodi:namedview
     inkscape:document-units="mm"
     pagecolor="#ffffff"
     bordercolor="#666666"
     borderopacity="1.0"
     inkscape:pageopacity="0.0"
     inkscape:pageshadow="2"
     inkscape:zoom="1.7366334"
     inkscape:cx="613.45404"
     inkscape:cy="362.18976"
     inkscape:current-layer="layer1"
     id="namedview4156"
     showgrid="false"
     inkscape:window-width="1331"
     inkscape:window-height="744"
     inkscape:window-x="35"
     inkscape:window-y="24"
     inkscape:window-maximized="1" />
  <metadata
     id="metadata4158">
    <rdf:RDF>
      <cc:Work
         rdf:about="">
        <dc:format>image/svg+xml</dc:format>
        <dc:type
           rdf:resource="http://purl.org/dc/dcmitype/StillImage" />
        <dc:title></dc:title>
      </cc:Work>
    </rdf:RDF>
  </metadata>
  <g
     inkscape:label="Layer 1"
     inkscape:groupmode="layer"
     id="layer1">
    <ellipse
       ry="41.391533"
       rx="40.186642"
       cy="130.95836"
       cx="186.75613"
       id="ellipse4769"
       style="opacity:1;fill:none;fill-opacity:1;stroke:#800066;stroke-width:0.27528366;stroke-miterlimit:4;stroke-dasharray:none;stroke-opacity:1" />
    <ellipse
       ry="31.938719"
       rx="30.082382"
       cy="124.30127"
       cx="49.627296"
       id="ellipse4759"
       style="opacity:1;fill:none;fill-opacity:1;stroke:#000000;stroke-width:0.59062278;stroke-miterlimit:4;stroke-dasharray:none;stroke-opacity:0.35532998" />
    <ellipse
       style="opacity:1;fill:none;fill-opacity:0.43147212;stroke:#000000;stroke-width:1.26536834;stroke-miterlimit:4;stroke-dasharray:none;stroke-opacity:0.43147212"
       id="path4703"
       cx="239.17563"
       cy="28.27313"
       rx="15.267998"
       ry="15.038397" />
    <ellipse
       style="opacity:1;fill:#ba0095;fill-opacity:1;stroke:none;stroke-width:20.63800049;stroke-miterlimit:4;stroke-dasharray:none;stroke-opacity:1"
       id="path4705"
       cx="215.34239"
       cy="76.411652"
       rx="3.4475763"
       ry="2.9109399" />
    <ellipse
       style="opacity:1;fill:none;fill-opacity:1;stroke:#919191;stroke-width:2.6052196;stroke-miterlimit:4;stroke-dasharray:none;stroke-opacity:1"
       id="path4707"
       cx="49.130001"
       cy="124.56669"
       rx="19.902216"
       ry="21.615467" />
    <path
       style="opacity:1;fill:none;fill-opacity:1;stroke:#000000;stroke-width:2.25777769;stroke-miterlimit:4;stroke-dasharray:none;stroke-opacity:0.43147212"
       d="m 222.31518,130.69458 a 35.427422,36.402489 0 0 1 -35.42742,36.40249 35.427422,36.402489 0 0 1 -35.42743,-36.40249 35.427422,36.402489 0 0 1 35.42743,-36.402489 35.427422,36.402489 0 0 1 35.42742,36.402489 z"
       id="path4709" />
    <ellipse
       style="opacity:1;fill:none;fill-opacity:0.35025383;stroke:#000000;stroke-width:1.41111112;stroke-miterlimit:4;stroke-dasharray:none;stroke-opacity:0.43147212"
       id="path4711"
       cx="251.89221"
       cy="195.37401"
       rx="12.025822"
       ry="12.675866" />
    <path
       style="fill:none;fill-rule:evenodd;stroke:#919191;stroke-width:0.56444442;stroke-linecap:butt;stroke-linejoin:miter;stroke-miterlimit:4;stroke-dasharray:none;stroke-opacity:1"
       d="m 151.4724,129.75438 -37.07296,-0.98421"
       id="path4741"
       inkscape:connector-type="polyline"
       inkscape:connector-curvature="0"
       inkscape:connection-start="#path4709"
       inkscape:connection-end="#ellipse4715" />
    <path
       style="fill:none;fill-rule:evenodd;stroke:#919191;stroke-width:0.53352106;stroke-linecap:butt;stroke-linejoin:miter;stroke-miterlimit:4;stroke-dasharray:none;stroke-opacity:1"
       d="M 107.13703,128.18435 69.627991,124.63887"
       id="path4743"
       inkscape:connector-type="polyline"
       inkscape:connector-curvature="0" />
    <path
       style="fill:none;fill-rule:evenodd;stroke:#919191;stroke-width:0.56444442;stroke-linecap:butt;stroke-linejoin:miter;stroke-miterlimit:4;stroke-dasharray:none;stroke-opacity:1"
       d="M 203.68744,98.645806 213.94707,79.073515"
       id="path4745"
       inkscape:connector-type="polyline"
       inkscape:connector-curvature="0"
       inkscape:connection-start="#path4709"
       inkscape:connection-end="#path4705" />
    <path
       style="fill:none;fill-rule:evenodd;stroke:#919191;stroke-width:0.48914367;stroke-linecap:butt;stroke-linejoin:miter;stroke-miterlimit:4;stroke-dasharray:none;stroke-opacity:1"
       d="M 216.67206,73.725973 232.48349,41.789955"
       id="path4747"
       inkscape:connector-type="polyline"
       inkscape:connector-curvature="0"
       inkscape:connection-start="#path4705"
       inkscape:connection-end="#path4703" />
    <path
       style="fill:none;fill-rule:evenodd;stroke:#919191;stroke-width:0.56444442;stroke-linecap:butt;stroke-linejoin:miter;stroke-miterlimit:4;stroke-dasharray:none;stroke-opacity:1"
       d="m 212.33786,156.01743 30.80952,30.65547"
       id="path4749"
       inkscape:connector-type="polyline"
       inkscape:connector-curvature="0"
       inkscape:connection-start="#path4709"
       inkscape:connection-end="#path4711" />
    <rect
       style="opacity:1;fill:#ffffff;fill-opacity:1;stroke:none;stroke-width:0.41619918;stroke-miterlimit:4;stroke-dasharray:none;stroke-opacity:0.43147212"
       id="rect4761"
       width="3.7589195"
       height="3.0307529"
       x="129.62692"
       y="135.06293"
       transform="matrix(0.97056912,-0.24082273,0.33908609,0.94075535,0,0)" />
    <rect
       style="opacity:1;fill:#ffffff;fill-opacity:1;stroke:#000000;stroke-width:0.01027843;stroke-miterlimit:4;stroke-dasharray:none;stroke-opacity:0.43147209"
       id="rect4763"
       width="7.6556034"
       height="3.7960601"
       x="229.53098"
       y="189.43636"
       transform="matrix(0.95041609,-0.31098111,-0.01218614,0.99992575,0,0)" />
    <path
       style="fill:none;fill-rule:evenodd;stroke:#919191;stroke-width:0.56444442;stroke-linecap:butt;stroke-linejoin:miter;stroke-miterlimit:4;stroke-dasharray:none;stroke-opacity:1"
       d="m 146.06795,169.72771 14.52257,-15.01195"
       id="path4767"
       inkscape:connector-type="polyline"
       inkscape:connector-curvature="0" />
    <g
       id="layer1-6"
       inkscape:label="Layer 1"
       transform="matrix(0.04738056,0,0,0.04336729,169.53828,104.56787)">
      <path
         style="opacity:1;fill:#d400aa;fill-opacity:1;stroke:none;stroke-width:20.63800049;stroke-miterlimit:4;stroke-dasharray:none;stroke-opacity:1"
         d="m 481.09331,217.42427 185.51972,-0.01 -0.0341,735.11497 -185.48108,-0.0262 z"
         id="path4153"
         inkscape:connector-curvature="0"
         sodipodi:nodetypes="ccccc" />
      <path
         sodipodi:nodetypes="ccccc"
         inkscape:connector-curvature="0"
         id="rect4155"
         d="m 71.852027,217.51367 185.401803,-0.0898 0,735.10318 -185.586272,-0.004 z"
         style="opacity:1;fill:#800066;fill-opacity:1;stroke:none;stroke-width:20.63800049;stroke-miterlimit:4;stroke-dasharray:none;stroke-opacity:1" />
      <path
         transform="matrix(0.39407901,0,0,0.35915633,311.94356,426.5911)"
         style="opacity:1;fill:#9b0e95;fill-opacity:1;stroke:none;stroke-width:20.63800049;stroke-miterlimit:4;stroke-dasharray:none;stroke-opacity:1"
         d="m -609.7153,1464.3554 1038.96107,-2046.7762 470.75008,0.01 -1038.02235,2046.7524 z"
         id="path4157"
         inkscape:connector-curvature="0"
         sodipodi:nodetypes="ccccc" />
      <path
         sodipodi:nodetypes="ccccc"
         inkscape:connector-curvature="0"
         id="rect4319"
         d="m 615.25565,309.70607 51.35737,-92.29149 -185.51722,403.38708 -4.3e-4,-70.00359 z"
         style="opacity:1;fill:#000000;fill-opacity:0.12182743;stroke:none;stroke-width:20.63800049;stroke-miterlimit:4;stroke-dasharray:none;stroke-opacity:1" />
      <path
         style="opacity:1;fill:#000000;fill-opacity:0.12182743;stroke:none;stroke-width:20.63800049;stroke-miterlimit:4;stroke-dasharray:none;stroke-opacity:1"
         d="m 205.86513,695.54 51.3887,-76.22572 -185.653829,333.17769 0.02302,-57.8284 z"
         id="path4324"
         inkscape:connector-curvature="0"
         sodipodi:nodetypes="ccccc" />
    </g>
    <ellipse
       ry="5.6116724"
       rx="4.9506254"
       cy="128.63878"
       cx="109.4502"
       id="ellipse4715"
       style="opacity:1;fill:#9b0e95;fill-opacity:1;stroke:none;stroke-width:20.63800049;stroke-miterlimit:4;stroke-dasharray:none;stroke-opacity:1" />
    <ellipse
       style="opacity:1;fill:none;fill-opacity:1;stroke:#800066;stroke-width:1.12888896;stroke-miterlimit:4;stroke-dasharray:none;stroke-opacity:1"
       id="path4765"
       cx="143.96538"
       cy="172.11194"
       rx="3.1394398"
       ry="3.2018263" />
    <path
       id="path4858"
       d="m 142.26729,172.9774 c 0,0.18754 0.13073,0.33943 0.29213,0.33943 l 0.4382,0 0,0.52357 c 0,0.0942 0.0657,0.16971 0.14606,0.16971 0.041,0 0.0781,-0.0195 0.10444,-0.0509 l 0.55286,-0.64237 1.60671,0 c 0.1614,0 0.29213,-0.15189 0.29213,-0.33943 l 0,-2.12141 c 0,-0.18753 -0.13073,-0.33942 -0.29213,-0.33942 l -2.84827,0 c -0.1614,0 -0.29213,0.15189 -0.29213,0.33942 l 0,2.12141 z m 0.87639,-0.97584 c 0,-0.11711 0.0818,-0.21215 0.18259,-0.21215 0.10078,0 0.18257,0.095 0.18257,0.21215 0,0.1171 -0.0818,0.21214 -0.18257,0.21214 -0.10079,0 -0.18259,-0.095 -0.18259,-0.21214 z m 0.6573,0 c 0,-0.11711 0.0818,-0.21215 0.18258,-0.21215 0.10078,0 0.18258,0.095 0.18258,0.21215 0,0.1171 -0.0818,0.21214 -0.18258,0.21214 -0.10079,0 -0.18258,-0.095 -0.18258,-0.21214 z m 0.65729,0 c 0,-0.11711 0.0818,-0.21215 0.18258,-0.21215 0.10078,0 0.18258,0.095 0.18258,0.21215 0,0.1171 -0.0818,0.21214 -0.18258,0.21214 -0.10079,0 -0.18258,-0.095 -0.18258,-0.21214 z"
       inkscape:connector-curvature="0"
       style="fill:#919191;fill-opacity:1" />
    <path
       id="path4880"
       d="m 226.61939,30.757991 c 0,1.577939 1.12865,2.854822 2.52338,2.854822 l 5.96435,0 c 1.39473,0 2.52337,-1.276883 2.52337,-2.854822 0,-1.212005 -0.66755,-2.244936 -1.60808,-2.660179 l 0.003,-0.06493 c 0,-1.648011 -1.1814,-2.984584 -2.63807,-2.984584 -0.92219,0 -1.73195,0.53489 -2.20452,1.34462 -0.25484,-0.194651 -0.56224,-0.306502 -0.89234,-0.306502 -0.88777,0 -1.60578,0.812323 -1.60578,1.816702 l 0,0.04699 c -1.17452,0.243702 -2.06459,1.408991 -2.06459,2.807857 z"
       inkscape:connector-curvature="0"
       style="fill:#1a1a1a" />
    <path
       id="path4902"
       d="m 136.66855,71.561445 c 0,0.433881 0.33245,0.785295 0.74292,0.785295 l 7.42925,0 c 0.41047,0 0.74293,-0.351414 0.74293,-0.785295 l 0,-5.300732 c 0,-0.433874 -0.33246,-0.785288 -0.74293,-0.785288 l -7.42925,0 c -0.41047,0 -0.74292,0.351414 -0.74292,0.785288 l 0,5.300732 z m 2.73397,-2.644474 -1.69945,-1.808141 c -0.14097,-0.149199 -0.14097,-0.390681 0,-0.539889 0.14134,-0.149206 0.3698,-0.149206 0.51076,0 l 2.71168,2.870055 c 0.10958,0.113866 0.28993,0.113866 0.39766,0 l 2.7152,-2.870055 c 0.14116,-0.149206 0.3696,-0.149206 0.51076,0 0.14115,0.149208 0.14115,0.39069 0,0.539889 l -1.7013,1.808141 1.7013,1.796163 c 0.14115,0.149206 0.14115,0.390681 0,0.539889 -0.14116,0.149206 -0.3696,0.149206 -0.51076,0 l -1.69945,-1.794396 c 0,0 -0.53099,0.571303 -0.62758,0.673388 -0.15063,0.155292 -0.35865,0.251493 -0.58523,0.251493 -0.23032,0 -0.43834,-0.09816 -0.58878,-0.257378 -0.0985,-0.102098 -0.62591,-0.667309 -0.62591,-0.667309 l -1.69777,1.794403 c -0.14097,0.1492 -0.36942,0.1492 -0.51077,0 -0.14096,-0.149206 -0.14096,-0.390689 0,-0.539896 l 1.69964,-1.796357 z"
       inkscape:connector-curvature="0"
       style="fill:#d315c7;fill-opacity:1" />
    <path
       id="path4913"
       d="m 147.86462,75.272603 c -0.61563,-0.60387 -2.0507,-0.846725 -2.8594,0.02146 -0.79154,0.846726 -1.43079,2.888119 -1.43079,4.81388 0,2.323339 1.94346,2.645702 3.00315,1.50434 0.61348,-0.661906 0.67141,-0.765285 1.07254,-1.289436 l 2.14509,0 c 0.40328,0.524151 0.45904,0.62753 1.07254,1.289436 1.05947,1.141362 3.00313,0.818999 3.00313,-1.50434 0,-1.925761 -0.63923,-3.967154 -1.43077,-4.81388 -0.8087,-0.868226 -2.24162,-0.62537 -2.8594,-0.02146 -0.23812,0.232098 -0.85805,0.322363 -0.85805,0.322363 0,0 -0.61993,-0.09021 -0.85804,-0.322363 z m -0.85803,1.418381 0,0.623013 0.62208,0 c 0.24882,0 0.45046,0.193417 0.45046,0.430033 0,0.23639 -0.20164,0.429807 -0.45046,0.429807 l -0.62208,0 0,0.623013 c 0,0.249505 -0.19306,0.451519 -0.42901,0.451519 -0.23597,0 -0.42903,-0.201803 -0.42903,-0.451519 l 0,-0.623013 -0.62207,0 c -0.24884,0 -0.45048,-0.193417 -0.45048,-0.429807 0,-0.236616 0.20164,-0.430033 0.45048,-0.430033 l 0.62207,0 0,-0.623013 c 0,-0.249293 0.19306,-0.451293 0.42903,-0.451293 0.23595,0 0.42901,0.202 0.42901,0.451293 z m 3.86116,0.300876 c 0,-0.29657 0.24025,-0.537266 0.53627,-0.537266 0.29603,0 0.53627,0.240696 0.53627,0.537266 0,0.296557 -0.24024,0.537252 -0.53627,0.537252 -0.29602,0 -0.53627,-0.240695 -0.53627,-0.537252 z m -1.07254,1.289422 c 0,-0.296782 0.24024,-0.537252 0.53627,-0.537252 0.29602,0 0.53627,0.24047 0.53627,0.537252 0,0.296359 -0.24025,0.53728 -0.53627,0.53728 -0.29603,0 -0.53627,-0.240921 -0.53627,-0.53728 z"
       inkscape:connector-curvature="0"
       style="fill:#d315c7;fill-opacity:1" />
    <path
       id="path4924"
       d="m 42.721692,130.48289 c 0,0.9501 0.696633,1.71961 1.556714,1.71961 l 0.389175,0 0,1.50466 c 0,0.59328 0.43588,1.07476 0.972937,1.07476 0.53707,0 0.97295,-0.48148 0.97295,-1.07476 l 0,-1.50466 1.945888,0 0,1.50466 c 0,0.59328 0.43588,1.07476 0.972951,1.07476 0.537056,0 0.972937,-0.48148 0.972937,-1.07476 l 0,-1.50466 1.945887,0 0,1.50466 c 0,0.59328 0.435882,1.07476 0.972951,1.07476 0.53707,0 0.972938,-0.48148 0.972938,-1.07476 l 0,-1.50466 0.389188,0 c 0.860081,0 1.556713,-0.76951 1.556713,-1.71961 l 0,-0.4299 1.362111,0 c 0.537071,0 0.972952,-0.48149 0.972952,-1.07474 0,-0.59327 -0.435881,-1.07477 -0.972952,-1.07477 l -1.362111,0 0,-2.14951 1.362111,0 c 0.537071,0 0.972952,-0.48149 0.972952,-1.07477 0,-0.59325 -0.435881,-1.07473 -0.972952,-1.07473 l -1.362111,0 0,-2.14952 1.362111,0 c 0.537071,0 0.972952,-0.48149 0.972952,-1.07476 0,-0.59326 -0.435881,-1.07475 -0.972952,-1.07475 l -1.362111,0 0,-0.42991 c 0,-0.95008 -0.696632,-1.7196 -1.556713,-1.7196 l -0.389188,0 0,-1.50467 c 0,-0.59326 -0.435868,-1.07475 -0.972938,-1.07475 -0.537069,0 -0.972951,0.48149 -0.972951,1.07475 l 0,1.50467 -1.945887,0 0,-1.50467 c 0,-0.59326 -0.435881,-1.07475 -0.972937,-1.07475 -0.537071,0 -0.972951,0.48149 -0.972951,1.07475 l 0,1.50467 -1.945888,0 0,-1.50467 c 0,-0.59326 -0.43588,-1.07475 -0.97295,-1.07475 -0.537057,0 -0.972937,0.48149 -0.972937,1.07475 l 0,1.50467 -0.389175,0 c -0.860081,0 -1.556714,0.76952 -1.556714,1.7196 l 0,0.42991 -1.362124,0 c -0.537071,0 -0.972951,0.48149 -0.972951,1.07475 0,0.59327 0.43588,1.07476 0.972951,1.07476 l 1.362124,0 0,2.14952 -1.362124,0 c -0.537071,0 -0.972951,0.48148 -0.972951,1.07473 0,0.59328 0.43588,1.07477 0.972951,1.07477 l 1.362124,0 0,2.14951 -1.362124,0 c -0.537071,0 -0.972951,0.4815 -0.972951,1.07477 0,0.59325 0.43588,1.07474 0.972951,1.07474 l 1.362124,0 0,0.4299 z m 9.729439,-8.08216 0,4.55696 c 0,0.52448 -0.381383,0.94579 -0.856179,0.94579 l -4.12529,0 c -0.474796,0 -0.856194,-0.42131 -0.856194,-0.94579 l 0,-4.55696 c 0,-0.52447 0.381398,-0.94578 0.856194,-0.94578 l 4.12529,0 c 0.474796,0 0.856179,0.42131 0.856179,0.94578 z"
       inkscape:connector-curvature="0"
       style="fill:#1a1a1a;fill-opacity:1" />
    <path
       id="path4946"
       d="m 250.231,199.57167 c 0.31045,0 0.56445,0.254 0.56445,0.56444 0,0.31045 -0.254,0.56445 -0.56445,0.56445 l -2.11666,0 c -0.38947,0 -0.70556,0.31609 -0.70556,0.70555 0,0.38947 0.31609,0.70556 0.70556,0.70556 l 7.90222,0 c 0.38946,0 0.70555,-0.31609 0.70555,-0.70556 0,-0.38946 -0.31609,-0.70555 -0.70555,-0.70555 l -2.11667,0 c -0.31044,0 -0.56444,-0.254 -0.56444,-0.56445 0,-0.31044 0.254,-0.56444 0.56444,-0.56444 l 3.66889,0 c 0.62371,0 1.12889,-0.50518 1.12889,-1.12889 l 0,-8.74889 c 0,-0.62371 -0.50518,-1.12889 -1.12889,-1.12889 l -11.00667,0 c -0.62371,0 -1.12889,0.50518 -1.12889,1.12889 l 0,8.74889 c 0,0.62371 0.50518,1.12889 1.12889,1.12889 l 3.66889,0 z m 1.12889,-2.11667 c 0,-0.38947 0.31609,-0.70555 0.70556,-0.70555 0.38946,0 0.70555,0.31608 0.70555,0.70555 0,0.38947 -0.31609,0.70556 -0.70555,0.70556 -0.38947,0 -0.70556,-0.31609 -0.70556,-0.70556 z m -3.89467,-7.47889 9.20045,0 c 0.34431,0 0.62089,0.27658 0.62089,0.62089 l 0,4.40267 c 0,0.34431 -0.27658,0.62089 -0.62089,0.62089 l -9.20045,0 c -0.34431,0 -0.62088,-0.27658 -0.62088,-0.62089 l 0,-4.40267 c 0,-0.34431 0.27657,-0.62089 0.62088,-0.62089 z"
       inkscape:connector-curvature="0"
       style="fill:#000000;fill-opacity:0.82741119" />
    <path
       id="path4957"
       d="m 217.42958,76.314683 c 0,-0.606181 -0.51031,-1.109808 -1.17972,-1.206266 -0.02,-0.685381 -0.67176,-1.235723 -1.47198,-1.235723 -0.81319,0 -1.47318,0.568615 -1.47318,1.269223 l 0,1.57384 c 0,0.28024 -0.26399,0.507686 -0.58927,0.507686 l -0.0589,0 c -0.16265,0 -0.29464,0.113722 -0.29464,0.253843 0,0.140128 0.13199,0.25385 0.29464,0.25385 l 0.0589,0 c 0.65056,0 1.17854,-0.454891 1.17854,-1.015379 l 0,-1.57384 c 0,-0.42036 0.39599,-0.761529 0.88391,-0.761529 0.48319,0 0.87671,0.334058 0.88389,0.749346 -0.61047,0.136061 -1.06068,0.615321 -1.06068,1.184949 l 0,1.208295 c 0,0.675226 0.63287,1.223531 1.41425,1.223531 0.78137,0 1.41424,-0.548305 1.41424,-1.223531 l 0,-1.208295 z m -1.17854,-0.512768 0,0.609225 c 0,0.111694 -0.10601,0.203078 -0.2357,0.203078 -0.12964,0 -0.23572,-0.09138 -0.23572,-0.203078 l 0,-0.609225 c 0,-0.111693 0.10602,-0.203077 0.23572,-0.203077 0.12963,0 0.2357,0.09138 0.2357,0.203077 z"
       inkscape:connector-curvature="0"
       style="fill:#ffffff;fill-opacity:1" />
    <path
       id="path4968"
       d="m 247.61902,24.329378 c 0,0.343444 0.27177,0.62218 0.60662,0.62218 0.33485,0 0.60662,-0.278736 0.60662,-0.62218 0,-0.343436 -0.27177,-0.622172 -0.60662,-0.622172 -0.33485,0 -0.60662,0.278736 -0.60662,0.622172 z m 0,3.981934 c 0,0.343445 0.27177,0.622181 0.60662,0.622181 0.33485,0 0.60662,-0.278736 0.60662,-0.622181 0,-0.343445 -0.27177,-0.62218 -0.60662,-0.62218 -0.33485,0 -0.60662,0.278735 -0.60662,0.62218 z m -8.49264,1.617655 c 0,0.550013 0.43434,0.995485 0.97059,0.995485 l 4.125,0 0,0.686889 c -0.1189,0.08209 -0.22081,0.186646 -0.30088,0.308594 l -2.97485,0 c -0.33486,0 -0.60663,0.278737 -0.60663,0.622181 0,0.343435 0.27177,0.622171 0.60663,0.622171 l 2.97485,0 c 0.19654,0.301136 0.52896,0.497747 0.9075,0.497747 0.37852,0 0.71095,-0.196611 0.9075,-0.497747 l 3.21749,0 c 0.33485,0 0.60662,-0.278736 0.60662,-0.622171 0,-0.343444 -0.27177,-0.622181 -0.60662,-0.622181 l -3.21749,0 c -0.0801,-0.121944 -0.18199,-0.22647 -0.30089,-0.308594 l 0,-0.686889 4.36764,0 c 0.53625,0 0.97059,-0.445472 0.97059,-0.995485 l 0,-7.217245 c 0,-0.550002 -0.43434,-0.995483 -0.97059,-0.995483 l -9.70587,0 c -0.53625,0 -0.97059,0.445481 -0.97059,0.995483 l 0,7.217245 z m 1.74706,-6.968376 8.15294,0 c 0.29602,0 0.53382,0.243894 0.53382,0.547516 l 0,1.64255 c 0,0.303621 -0.2378,0.547515 -0.53382,0.547515 l -8.15294,0 c -0.29603,0 -0.53383,-0.243894 -0.53383,-0.547515 l 0,-1.64255 c 0,-0.303622 0.2378,-0.547516 0.53383,-0.547516 z m 0,3.981934 8.15294,0 c 0.29602,0 0.53382,0.243896 0.53382,0.547518 l 0,1.64254 c 0,0.303621 -0.2378,0.547515 -0.53382,0.547515 l -8.15294,0 c -0.29603,0 -0.53383,-0.243894 -0.53383,-0.547515 l 0,-1.64254 c 0,-0.303622 0.2378,-0.547518 0.53383,-0.547518 z"
       inkscape:connector-curvature="0"
       style="fill:#1a1a1a;fill-opacity:0.92385786" />
    <path
       id="path4990"
       d="m 109.93421,130.07597 0.43002,0.44199 c 0.14171,0.14581 0.37076,0.14581 0.51263,0 0.14201,-0.1458 0.14201,-0.38139 0,-0.52705 l -0.42839,-0.44198 0.42839,-0.44048 c 0,0 -1.62241,-0.71234 -1.68891,-0.73817 -0.0355,-0.0136 -0.0725,-0.0214 -0.11081,-0.0214 -0.17142,0 -0.31032,0.14126 -0.31032,0.31593 0,0.0411 0.007,0.079 0.0206,0.11392 0.0252,0.0652 0.71819,1.7391 0.71819,1.7391 l 0.42855,-0.44199 z m -3.9751,1.46268 c 0,0.33568 0.26451,0.60754 0.59109,0.60754 l 5.91092,0 c 0.32659,0 0.5911,-0.27186 0.5911,-0.60754 l 0,-5.61981 c 0,-0.33567 -0.26451,-0.60755 -0.5911,-0.60755 l -5.91092,0 c -0.32658,0 -0.59109,0.27188 -0.59109,0.60755 l 0,5.61981 z m 1.06396,-4.10095 4.96518,0 c 0.18028,0 0.3251,0.14885 0.3251,0.33414 l 0,3.28077 c 0,0.1853 -0.14482,0.33415 -0.3251,0.33415 l -4.96518,0 c -0.18027,0 -0.32508,-0.14885 -0.32508,-0.33415 l 0,-3.28077 c 0,-0.18529 0.14481,-0.33414 0.32508,-0.33414 z m -0.32508,-0.98726 c 0,-0.20961 0.16549,-0.37972 0.36941,-0.37972 0.20394,0 0.36945,0.17011 0.36945,0.37972 0,0.20961 -0.16551,0.37972 -0.36945,0.37972 -0.20392,0 -0.36941,-0.17011 -0.36941,-0.37972 z m 1.32995,0 c 0,-0.20961 0.1655,-0.37972 0.36942,-0.37972 0.20394,0 0.36944,0.17011 0.36944,0.37972 0,0.20961 -0.1655,0.37972 -0.36944,0.37972 -0.20392,0 -0.36942,-0.17011 -0.36942,-0.37972 z m 1.32996,0 c 0,-0.20961 0.1655,-0.37972 0.36942,-0.37972 0.20393,0 0.36944,0.17011 0.36944,0.37972 0,0.20961 -0.16551,0.37972 -0.36944,0.37972 -0.20392,0 -0.36942,-0.17011 -0.36942,-0.37972 z"
       inkscape:connector-curvature="0"
       style="fill:#ffffff;fill-opacity:0.92385786" />
    <circle
       style="opacity:1;fill:none;fill-opacity:0.43137255;stroke:#000000;stroke-width:1.41111112;stroke-miterlimit:4;stroke-dasharray:none;stroke-opacity:0.43147212"
       id="path4999"
       cx="145.28493"
       cy="73.165642"
       r="16.576134" />
    <path
       style="fill:none;fill-rule:evenodd;stroke:#919191;stroke-width:0.56444442;stroke-linecap:butt;stroke-linejoin:miter;stroke-miterlimit:4;stroke-dasharray:none;stroke-opacity:1"
       d="M 155.52298,87.142673 167.3866,99.816399"
       id="path5001"
       inkscape:connector-type="polyline"
       inkscape:connector-curvature="0" />
  </g>
</svg>
