<?xml version="1.0" encoding="UTF-8" standalone="no"?>
<!-- Generated by IcoMoon.io -->

<svg
   xmlns:dc="http://purl.org/dc/elements/1.1/"
   xmlns:cc="http://creativecommons.org/ns#"
   xmlns:rdf="http://www.w3.org/1999/02/22-rdf-syntax-ns#"
   xmlns:svg="http://www.w3.org/2000/svg"
   xmlns="http://www.w3.org/2000/svg"
   xmlns:sodipodi="http://sodipodi.sourceforge.net/DTD/sodipodi-0.dtd"
   xmlns:inkscape="http://www.inkscape.org/namespaces/inkscape"
   version="1.1"
   width="48"
   height="48"
   viewBox="0 0 48 48"
   id="svg2"
   inkscape:version="0.91 r13725"
   sodipodi:docname="hardware.svg">
  <metadata
     id="metadata10">
    <rdf:RDF>
      <cc:Work
         rdf:about="">
        <dc:format>image/svg+xml</dc:format>
        <dc:type
           rdf:resource="http://purl.org/dc/dcmitype/StillImage" />
      </cc:Work>
    </rdf:RDF>
  </metadata>
  <defs
     id="defs8" />
  <sodipodi:namedview
     pagecolor="#ffffff"
     bordercolor="#666666"
     borderopacity="1"
     objecttolerance="10"
     gridtolerance="10"
     guidetolerance="10"
     inkscape:pageopacity="0"
     inkscape:pageshadow="2"
     inkscape:window-width="1331"
     inkscape:window-height="744"
     id="namedview6"
     showgrid="false"
     inkscape:zoom="4.9166667"
     inkscape:cx="16.270573"
     inkscape:cy="6.8510244"
     inkscape:window-x="35"
     inkscape:window-y="24"
     inkscape:window-maximized="1"
     inkscape:current-layer="svg2" />
  <path
     d="m 5.6956841,43.545843 5.1187649,-0.111385 0,3.285882 5.118764,0 0,-3.285882 5.118765,0 0,3.285882 5.118764,0 0,-3.285882 5.118764,0 0,3.285882 5.118765,0 0,-3.285882 5.118764,-0.127298 0,-4.56682 3.583135,0 0,-4.694118 -3.583135,0 0,-4.694117 3.583135,0 0,-4.694118 -3.583135,0 0,-4.694118 3.583135,0 0,-4.694118 -3.583135,0 -0.0087,-4.590687 -5.110088,-0.103426 0,-4.4315653 -5.118764,0 0,4.4315653 -5.118764,0 0,-4.2406181 -5.118765,0 0,4.2406181 -5.118764,0 0,-4.2406181 -5.118766,0 0,4.2406181 -5.0146529,0.222772 -0.1041135,4.471346 -4.4160192,0.09547 0,4.694118 4.4160192,-0.09547 0,4.694118 -4.3119089,0 0,4.694118 4.3119089,0 0,4.694117 -4.2077984,0 0,4.694118 4.2077984,0 z M 33.996378,16.96918 l 0,18.639626 -20.353595,0.09547 0,-18.639624 z"
     id="path4"
     inkscape:connector-curvature="0"
     sodipodi:nodetypes="cccccccccccccccccccccccccccccccccccccccccccccccccccccccccc" />
</svg>
