<?xml version="1.0" encoding="UTF-8" standalone="no"?>
<!-- Generated by IcoMoon.io -->

<svg
   xmlns:dc="http://purl.org/dc/elements/1.1/"
   xmlns:cc="http://creativecommons.org/ns#"
   xmlns:rdf="http://www.w3.org/1999/02/22-rdf-syntax-ns#"
   xmlns:svg="http://www.w3.org/2000/svg"
   xmlns="http://www.w3.org/2000/svg"
   xmlns:sodipodi="http://sodipodi.sourceforge.net/DTD/sodipodi-0.dtd"
   xmlns:inkscape="http://www.inkscape.org/namespaces/inkscape"
   version="1.1"
   width="48"
   height="48"
   viewBox="0 0 48 48"
   id="svg2"
   inkscape:version="0.91 r13725"
   sodipodi:docname="server.svg">
  <metadata
     id="metadata10">
    <rdf:RDF>
      <cc:Work
         rdf:about="">
        <dc:format>image/svg+xml</dc:format>
        <dc:type
           rdf:resource="http://purl.org/dc/dcmitype/StillImage" />
      </cc:Work>
    </rdf:RDF>
  </metadata>
  <defs
     id="defs8" />
  <sodipodi:namedview
     pagecolor="#ffffff"
     bordercolor="#666666"
     borderopacity="1"
     objecttolerance="10"
     gridtolerance="10"
     guidetolerance="10"
     inkscape:pageopacity="0"
     inkscape:pageshadow="2"
     inkscape:window-width="1331"
     inkscape:window-height="744"
     id="namedview6"
     showgrid="false"
     inkscape:zoom="4.9166667"
     inkscape:cx="24"
     inkscape:cy="7.1281202"
     inkscape:window-x="35"
     inkscape:window-y="24"
     inkscape:window-maximized="1"
     inkscape:current-layer="svg2" />
  <path
     d="m 34.783251,13.274894 c 0,1.348188 1.049064,2.442368 2.341661,2.442368 1.292597,0 2.341661,-1.09418 2.341661,-2.442368 0,-1.348187 -1.049064,-2.442367 -2.341661,-2.442367 -1.292597,0 -2.341661,1.09418 -2.341661,2.442367 z m 0,15.631155 c 0,1.348187 1.049064,2.442368 2.341661,2.442368 1.292597,0 2.341661,-1.094181 2.341661,-2.442368 0,-1.348187 -1.049064,-2.442368 -2.341661,-2.442368 -1.292597,0 -2.341661,1.094181 -2.341661,2.442368 z M 2,35.256206 l 0.127005,3.907788 19.542946,0 0,2.696375 -1.144318,0.051 -0.01715,1.160418 -11.483505,0 0,1.90422 11.483505,0 0.04114,1.137849 6.990912,-0.0275 -0.0258,-1.110345 12.420169,0 -6e-6,-1.904223 -12.420169,0 0.01064,-1.156275 -1.172101,-0.05514 0,-2.696375 20.765373,0 -0.158758,-3.907788 0,-28.3314682 0.158758,-3.9077886 -45.086894,0 L 2,6.9247378 Z m 2.838569,-29.3415322 39.28275,0 0,12.7334302 -39.28275,0 z m -0.09525,16.0285562 39.378004,0 0,13.925638 -39.378004,0 z"
     id="path4"
     inkscape:connector-curvature="0"
     sodipodi:nodetypes="ssssssssssccccccccccccccccccccccccccccccccccc" />
</svg>
